<?xml version="1.0" encoding="utf-8"?>
<!-- Generator: Adobe Illustrator 23.0.1, SVG Export Plug-In . SVG Version: 6.00 Build 0)  -->
<svg version="1.1" id="Layer_1" xmlns="http://www.w3.org/2000/svg" xmlns:xlink="http://www.w3.org/1999/xlink" x="0px" y="0px"
	 viewBox="0 0 1086.8 789.3" style="enable-background:new 0 0 1086.8 789.3;" xml:space="preserve">
<style type="text/css">
	.st0{opacity:0.2;fill:#5F788A;enable-background:new    ;}
	.st1{opacity:0.5;}
	.st2{fill:#5F788A;}
	.st3{fill:none;stroke:#535461;stroke-width:2;stroke-miterlimit:10;}
	.st4{opacity:0.1;fill:#5F788A;enable-background:new    ;}
	.st5{opacity:0.2;fill:#F5F5F5;enable-background:new    ;}
	.st6{fill:url(#SVGID_1_);}
	.st7{fill:#535461;}
	.st8{fill:#F1F1F4;}
	.st9{fill:#FFFFFF;}
	.st10{fill:#E6E8EC;}
	.st11{opacity:0.1;enable-background:new    ;}
	.st12{fill:url(#SVGID_2_);}
	.st13{fill:url(#SVGID_3_);}
	.st14{fill:url(#SVGID_4_);}
	.st15{fill:#F7C4A7;}
	.st16{opacity:5.000000e-02;enable-background:new    ;}
	.st17{fill:#575988;}
	.st18{fill:#F3B5B7;}
	.st19{fill:#714B4F;}
	.st20{fill:url(#SVGID_5_);}
	.st21{fill:#DDDBE2;}
	.st22{fill:#37373A;}
	.st23{fill:url(#SVGID_6_);}
	.st24{fill:#4F4D59;}
	.st25{fill:#787C9C;}
	.st26{opacity:0.1;}
	.st27{fill:#E6E6F0;}
	.st28{fill:#67647E;}
	.st29{fill:#BA7855;}
	.st30{fill:url(#SVGID_7_);}
	.st31{fill:url(#SVGID_8_);}
	.st32{fill:#FDC2CC;}
	.st33{fill:#47465A;}
	.st34{opacity:0.3;fill:#FFFFFF;enable-background:new    ;}
	.st35{fill:#565171;}
	.st36{fill:#F68080;}
	.st37{fill:url(#SVGID_9_);}
	.st38{opacity:5.000000e-02;}
</style>
<title>in sync</title>
<path class="st0" d="M153.4,43.6c-8.1-0.2-16.3,0-23.9,2.3c-20.6,6.3-30.3,27-27.1,44.9s16.2,33.4,29.7,47.7s28.2,28.3,35.6,45.3
	c3.7,8.5,5.4,18,1.7,26.5c-5.8,13.1-23.3,20.4-40.1,21.9s-33.6-1.4-50.5-2.4c-7.1-0.4-14.3-0.5-21,1.5c-7.3,2.1-13.4,6.3-19,10.8
	C16.9,259.3-0.6,283,2.3,307.9c3.2,28.2,31.7,50.5,63,62.5c10.4,4,21.3,7.2,30.4,12.8c24,14.9,29.4,42.9,27,67.6
	c-2.4,24.7-10.5,49.5-6,73.9c5.3,28.5,28.9,54.2,60.7,66.3c28.4,10.7,63.8,10,89-5.1c12.3-7.4,21.5-17.6,29.6-28.2
	c12-15.7,21.9-32.8,29.5-51c3.5-8.5,6.8-17.6,15-23.5c5-3.6,11.5-5.7,17.9-7.2c19.3-4.8,39.7-6.1,59.2-10.3s39.1-12.1,49.7-26.3
	c15-20,8-45.6,8.1-69.1c0.1-53.7,39.1-101.7,53.5-154c4.7-17.1,6.5-36-4-51.3c-7.1-10.4-19.2-17.8-31.8-23.6
	c-27.8-12.7-59.4-18.3-90.5-23.8c-43.2-7.6-95.7-8.6-129.2-33.4C241.2,60.5,197.2,43.6,153.4,43.6z"/>
<g class="st1">
	<path class="st2" d="M27.3,349.4c-2.1,3.2-3.9,7.8-1.1,13.1c5.5,10.5,19.1,8.3,25.7,18.4c1.8,2.8,2.8,6,2.8,9.3
		c0.3,5.7-1.5,10.2-2.4,15.2c-1.2,5.9-0.3,12,2.6,17.3c3.2,5.5,8.1,9.9,14,12.5c5.1,2.3,10,2.8,14.9,3.9c6.1,1.4,12,3.4,17.7,6
		c2.7,1.1,5.2,2.6,7.5,4.4c2.8,2.5,5.4,5.2,7.6,8.2L138,484c2.7,3.5,5.7,6.8,9,9.8c3.6,2.9,7.5,5.3,11.7,7.2
		c8.5,4.2,17.4,8.6,24.7,8.1s12.5-7.6,9-17.5c-3.3-9.5-12.6-17.4-16.8-26.9c-6.6-14.9,2.1-26-3.5-40.9c-5.3-14.3-20.3-23.9-29.9-37
		c-6.9-9.3-10.7-20.1-16.9-29.9c-9-14-22.4-24.7-35-30.1c-11.1-4.7-23.2-6.4-35.2-4.9c-4.6,0.5-9.1,1.4-12.3,4.1
		c-3.4,2.9-3,8.3-5.2,12.2C35.1,342.6,30.2,345.1,27.3,349.4z"/>
	<path class="st3" d="M40.7,329.2c0,0,106.5,99.6,149.4,177.1"/>
	<path class="st3" d="M26.6,363.1c0,0,42.5-8.3,72,24.9"/>
	<path class="st3" d="M56.9,425.6c0,0,47-32.9,63.3-13.8"/>
	<path class="st3" d="M90.2,326.5c0,0-4.9,25.2,12.9,66.3"/>
	<path class="st3" d="M172.1,424.2c0,0-4.2,16.5-37.6,4.4"/>
	<path class="st3" d="M138.1,481.9c0,0,20.4-23.6,11.1-35.2"/>
</g>
<path class="st2" d="M7.3,233.9c-5,5.9-9.7,14.1-6,22.2c7.1,15.8,33.3,8.1,42.6,22.8c2.8,4.4,3.2,9.8,2.5,14.6
	c-1.3,9.4-5.9,17.4-9.1,26s-4.9,19-0.3,28.1c4.4,8.8,13.6,14.3,22.5,16.5s17.9,1.7,26.8,2c10.6,0.4,21.1,2,31.4,4.6
	c4.5,1,8.8,2.8,12.8,5.1c4.6,2.9,8.2,7.2,11.8,11.4l32,37.3c4.3,5,8.6,10,13.9,13.7c6.1,4.2,13,6.4,19.8,8.5c14.6,4.5,30,9,44,5.9
	s25.8-16.5,22.3-31.9c-3.3-14.8-18.4-25.2-23.4-39.7c-8-22.8,11.8-43.9,5.8-67.1c-5.7-22.2-30.9-33.7-44.9-52.5
	c-10-13.5-13.9-30.3-22.7-44.7c-12.6-20.7-34.6-34.4-56.5-39.6s-43.9-2.8-64.5,2.4c-8.7,2.2-17.4,5-24.3,10.5
	c-7.3,5.9-8.2,14.8-13.5,21.9C24,220.2,14.1,225.9,7.3,233.9z"/>
<path class="st3" d="M38.5,196.3c0,0,169.7,133.5,226.8,249.6"/>
<path class="st3" d="M1.9,256.9c0,0,82.4-26.6,127.5,19.7"/>
<path class="st3" d="M39.7,351.9c0,0,98.1-69,122.9-42.1"/>
<path class="st3" d="M132.3,176.8c0,0-16.9,43.4,4,106.5"/>
<path class="st3" d="M256.3,314.6c0,0-12.8,28.7-71.9,18.7"/>
<path class="st3" d="M175.1,421c0,0,45.5-45.5,31.6-62"/>
<ellipse class="st4" cx="618" cy="647.2" rx="465" ry="124.5"/>
<path class="st2" d="M980.1,0.4c0,0-35.8,35.8-15.6,89c20.2,53.2-34.7,141.6-34.7,141.6s0.6-0.1,1.7-0.3
	c73.6-13,110.2-97.2,69.2-159.7C985.6,47.8,973.1,20.5,980.1,0.4z"/>
<path class="st3" d="M980.1,0.4c0,0-20.2,43.9,0,79.8s3.5,136.4-50.3,150.8"/>
<path class="st2" d="M1044,145.3c0,0-40.9-6.5-44.6,30.1s-78.6,41.7-78.6,41.7l1.4,0.9c61.8,40.6,121,25.9,112-28
	C1030.9,170,1031.1,149.9,1044,145.3z"/>
<path class="st5" d="M1044,145.3c0,0-40.9-6.5-44.6,30.1s-78.6,41.7-78.6,41.7l1.4,0.9c61.8,40.6,121,25.9,112-28
	C1030.9,170,1031.1,149.9,1044,145.3z"/>
<path class="st3" d="M1044,145.3c0,0-31.7,7-29.1,35.8s-47.1,63.5-94.1,36"/>
<path class="st3" d="M246.7,279.8c0,0-13.3-45,2.5-78.1c6.7-13.9,8.7-29.5,5.8-44.6c-1.5-7.2-3.6-14.2-6.3-20.9"/>
<path class="st2" d="M258.4,115.2c0,5.5-10,21.5-10,21.5s-10-16-10-21.5c0-5.5,4.5-10,10-10S258.4,109.7,258.4,115.2z"/>
<path class="st2" d="M274.9,145.7c-3,4.6-20.1,12.6-20.1,12.6s0.3-18.9,3.3-23.5c2.8-4.8,8.9-6.4,13.7-3.6s6.4,8.9,3.6,13.7
	C275.3,145.2,275.1,145.5,274.9,145.7z"/>
<path class="st2" d="M274.2,198c-4.9,2.5-23.7,0.8-23.7,0.8s9.8-16.1,14.7-18.6c4.8-2.7,10.9-1,13.6,3.8c2.7,4.8,1,10.9-3.8,13.6
	C274.7,197.7,274.5,197.9,274.2,198L274.2,198z"/>
<path class="st2" d="M264.8,237.3c-4.4,3.3-23.2,4.8-23.2,4.8s6.9-17.5,11.4-20.8c4.3-3.5,10.6-2.9,14.1,1.4
	c3.5,4.3,2.9,10.6-1.4,14.1C265.3,237,265,237.2,264.8,237.3z"/>
<path class="st2" d="M233.9,159.4c4,3.8,22.4,7.8,22.4,7.8s-4.5-18.3-8.5-22.1c-3.8-4-10.1-4.2-14.1-0.5c-4,3.8-4.2,10.1-0.5,14.1
	C233.4,159,233.6,159.2,233.9,159.4L233.9,159.4z"/>
<path class="st2" d="M223.4,205.6c4.9,2.5,23.7,0.8,23.7,0.8s-9.8-16.1-14.7-18.6c-5-2.3-11,0-13.2,5
	C217,197.5,218.9,203.1,223.4,205.6L223.4,205.6z"/>
<path class="st2" d="M219.4,251.9c4.4,3.3,23.2,4.8,23.2,4.8s-6.9-17.5-11.4-20.8c-4.6-3.1-10.8-1.8-13.9,2.8
	C214.6,242.9,215.4,248.7,219.4,251.9z"/>
<linearGradient id="SVGID_1_" gradientUnits="userSpaceOnUse" x1="687.61" y1="139.64" x2="687.61" y2="624" gradientTransform="matrix(1 0 0 -1 -56.59 736.88)">
	<stop  offset="0" style="stop-color:#808080;stop-opacity:0.25"/>
	<stop  offset="0.54" style="stop-color:#808080;stop-opacity:0.12"/>
	<stop  offset="1" style="stop-color:#808080;stop-opacity:0.1"/>
</linearGradient>
<path class="st6" d="M1072.4,541.5h-85.1c2-3.9,3-8.3,3-12.7V141.4c0-15.7-12.8-28.5-28.5-28.5H303.2c-15.7,0-28.5,12.8-28.5,28.5
	v387.5c0,4.4,1,8.7,3,12.7h-88.1c-4.2,0-7.5,3.4-7.5,7.5l0,0v6.1c0,23.3,18.9,42.1,42.1,42.1h0h813.7c23.3,0,42.1-18.9,42.1-42.1
	c0,0,0,0,0,0V549C1080,544.9,1076.6,541.5,1072.4,541.5C1072.5,541.5,1072.4,541.5,1072.4,541.5z M548.1,565.6l-7.3-8.3h181.1
	l-8.1,8.3H548.1z"/>
<path class="st7" d="M306,118.3h652.9c12.8,0,23.3,10.4,23.3,23.3v387.9c0,12.8-10.4,23.3-23.3,23.3H306
	c-12.8,0-23.3-10.4-23.3-23.3V141.6C282.7,128.8,293.2,118.3,306,118.3z"/>
<rect x="297.5" y="181.7" class="st8" width="668.5" height="354.9"/>
<circle class="st9" cx="631.7" cy="150.7" r="5.9"/>
<path class="st7" d="M734.9,537.3l-23,23.6h-162l-20.8-23.6H199.5c-4.1,0-7.4,3.3-7.4,7.4v5.9c0,22.7,18.4,41.2,41.2,41.2
	c0,0,0,0,0.1,0h795.2c22.7,0,41.2-18.4,41.2-41.2c0,0,0,0,0,0v-5.9c0-4.1-3.3-7.4-7.4-7.4H734.9z"/>
<rect x="338.3" y="208.7" class="st9" width="182.8" height="137.7"/>
<rect x="356.2" y="220.6" class="st0" width="60.9" height="34.4"/>
<rect x="431.7" y="220.6" class="st10" width="71.5" height="7.9"/>
<rect x="431.7" y="233.9" class="st10" width="50.3" height="7.9"/>
<rect x="431.7" y="247.1" class="st10" width="71.5" height="7.9"/>
<rect x="356.2" y="260.4" class="st10" width="147" height="8"/>
<rect x="356.2" y="273.6" class="st10" width="147" height="8"/>
<rect x="356.2" y="286.9" class="st10" width="147" height="8"/>
<rect x="356.2" y="300.1" class="st10" width="135.1" height="8"/>
<rect x="356.2" y="313.3" class="st10" width="147" height="8"/>
<rect x="356.2" y="326.6" class="st10" width="147" height="8"/>
<rect x="539.6" y="208.7" class="st9" width="182.8" height="137.7"/>
<rect x="557.5" y="220.6" class="st0" width="60.9" height="34.4"/>
<rect x="633" y="220.6" class="st10" width="71.5" height="7.9"/>
<rect x="633" y="233.9" class="st10" width="50.3" height="7.9"/>
<rect x="633" y="247.1" class="st10" width="71.5" height="7.9"/>
<rect x="557.5" y="260.4" class="st10" width="147" height="8"/>
<rect x="557.5" y="273.6" class="st10" width="147" height="8"/>
<rect x="557.5" y="286.9" class="st10" width="147" height="8"/>
<rect x="557.5" y="300.1" class="st10" width="135.1" height="8"/>
<rect x="557.5" y="313.3" class="st10" width="147" height="8"/>
<rect x="557.5" y="326.6" class="st10" width="147" height="8"/>
<rect x="740.9" y="208.7" class="st9" width="182.8" height="137.7"/>
<rect x="758.8" y="220.6" class="st0" width="60.9" height="34.4"/>
<rect x="834.3" y="220.6" class="st10" width="71.5" height="7.9"/>
<rect x="834.3" y="233.9" class="st10" width="50.3" height="7.9"/>
<rect x="834.3" y="247.1" class="st10" width="71.5" height="7.9"/>
<rect x="758.8" y="260.4" class="st10" width="147" height="8"/>
<rect x="758.8" y="273.6" class="st10" width="147" height="8"/>
<rect x="758.8" y="286.9" class="st10" width="147" height="8"/>
<rect x="758.8" y="300.1" class="st10" width="135.1" height="8"/>
<rect x="758.8" y="313.3" class="st10" width="147" height="8"/>
<rect x="758.8" y="326.6" class="st10" width="147" height="8"/>
<rect x="338.3" y="363.7" class="st9" width="182.8" height="137.7"/>
<rect x="356.2" y="375.6" class="st0" width="60.9" height="34.4"/>
<rect x="431.7" y="375.6" class="st10" width="71.5" height="8"/>
<rect x="431.7" y="388.8" class="st10" width="50.3" height="8"/>
<rect x="431.7" y="402.1" class="st10" width="71.5" height="8"/>
<rect x="356.2" y="415.3" class="st10" width="147" height="8"/>
<rect x="356.2" y="428.6" class="st10" width="147" height="8"/>
<rect x="356.2" y="441.8" class="st10" width="147" height="8"/>
<rect x="356.2" y="455" class="st10" width="135.1" height="8"/>
<rect x="356.2" y="468.3" class="st10" width="147" height="8"/>
<rect x="356.2" y="481.5" class="st10" width="147" height="8"/>
<rect x="539.6" y="363.7" class="st9" width="182.8" height="137.7"/>
<rect x="557.5" y="375.6" class="st0" width="60.9" height="34.4"/>
<rect x="633" y="375.6" class="st10" width="71.5" height="8"/>
<rect x="633" y="388.8" class="st10" width="50.3" height="8"/>
<rect x="633" y="402.1" class="st10" width="71.5" height="8"/>
<rect x="557.5" y="415.3" class="st10" width="147" height="8"/>
<rect x="557.5" y="428.6" class="st10" width="147" height="8"/>
<rect x="557.5" y="441.8" class="st10" width="147" height="8"/>
<rect x="557.5" y="455" class="st10" width="135.1" height="8"/>
<rect x="557.5" y="468.3" class="st10" width="147" height="8"/>
<rect x="557.5" y="481.5" class="st10" width="147" height="8"/>
<rect x="740.9" y="363.7" class="st11" width="182.8" height="137.7"/>
<linearGradient id="SVGID_2_" gradientUnits="userSpaceOnUse" x1="357.65" y1="39.46" x2="357.65" y2="481.8201" gradientTransform="matrix(1 0 0 -1 -56.59 736.88)">
	<stop  offset="0" style="stop-color:#808080;stop-opacity:0.25"/>
	<stop  offset="0.54" style="stop-color:#808080;stop-opacity:0.12"/>
	<stop  offset="1" style="stop-color:#808080;stop-opacity:0.1"/>
</linearGradient>
<path class="st12" d="M442.1,255.1h-282c-14.3,0-25.9,11.5-25.9,25.8c0,0,0,0,0,0v390.7c0,14.3,11.6,25.8,25.9,25.8c0,0,0,0,0,0h282
	c14.3,0,25.8-11.5,25.9-25.8c0,0,0,0,0,0V280.9C467.9,266.6,456.4,255.1,442.1,255.1C442.1,255.1,442.1,255.1,442.1,255.1z"/>
<path class="st7" d="M158.2,260.4H444c11,0,20,9,20,20v393.1c0,11-9,20-20,20H158.2c-11,0-20-9-20-20V280.4
	C138.2,269.3,147.1,260.4,158.2,260.4z"/>
<rect x="154.7" y="301.3" class="st8" width="292.7" height="351.1"/>
<circle class="st9" cx="299.7" cy="280.2" r="4"/>
<circle class="st9" cx="299.7" cy="672.3" r="11.9"/>
<rect x="167.4" y="337.2" class="st9" width="83.5" height="62.9"/>
<rect x="175.5" y="342.7" class="st0" width="27.8" height="15.7"/>
<rect x="210" y="342.7" class="st10" width="32.7" height="3.6"/>
<rect x="210" y="348.7" class="st10" width="23" height="3.6"/>
<rect x="210" y="354.8" class="st10" width="32.7" height="3.6"/>
<rect x="175.5" y="360.8" class="st10" width="67.2" height="3.6"/>
<rect x="175.5" y="366.9" class="st10" width="67.2" height="3.6"/>
<rect x="175.5" y="372.9" class="st10" width="67.2" height="3.6"/>
<rect x="175.5" y="379" class="st10" width="61.7" height="3.6"/>
<rect x="175.5" y="385" class="st10" width="67.2" height="3.6"/>
<rect x="175.5" y="391.1" class="st10" width="67.2" height="3.6"/>
<rect x="259.3" y="337.2" class="st9" width="83.5" height="62.9"/>
<rect x="267.5" y="342.7" class="st0" width="27.8" height="15.7"/>
<rect x="302" y="342.7" class="st10" width="32.7" height="3.6"/>
<rect x="302" y="348.7" class="st10" width="23" height="3.6"/>
<rect x="302" y="354.8" class="st10" width="32.7" height="3.6"/>
<rect x="267.5" y="360.8" class="st10" width="67.1" height="3.6"/>
<rect x="267.5" y="366.9" class="st10" width="67.1" height="3.6"/>
<rect x="267.5" y="372.9" class="st10" width="67.1" height="3.6"/>
<rect x="267.5" y="379" class="st10" width="61.7" height="3.6"/>
<rect x="267.5" y="385" class="st10" width="67.1" height="3.6"/>
<rect x="267.5" y="391.1" class="st10" width="67.1" height="3.6"/>
<rect x="351.3" y="337.2" class="st9" width="83.5" height="62.9"/>
<rect x="359.5" y="342.7" class="st0" width="27.8" height="15.7"/>
<rect x="393.9" y="342.7" class="st10" width="32.7" height="3.6"/>
<rect x="393.9" y="348.7" class="st10" width="23" height="3.6"/>
<rect x="393.9" y="354.8" class="st10" width="32.7" height="3.6"/>
<rect x="359.5" y="360.8" class="st10" width="67.1" height="3.6"/>
<rect x="359.5" y="366.9" class="st10" width="67.1" height="3.6"/>
<rect x="359.5" y="372.9" class="st10" width="67.1" height="3.6"/>
<rect x="359.5" y="379" class="st10" width="61.7" height="3.6"/>
<rect x="359.5" y="385" class="st10" width="67.1" height="3.6"/>
<rect x="359.5" y="391.1" class="st10" width="67.1" height="3.6"/>
<rect x="167.4" y="408" class="st9" width="83.5" height="62.9"/>
<rect x="175.5" y="413.4" class="st0" width="27.8" height="15.7"/>
<rect x="210" y="413.4" class="st10" width="32.7" height="3.6"/>
<rect x="210" y="419.5" class="st10" width="23" height="3.6"/>
<rect x="210" y="425.5" class="st10" width="32.7" height="3.6"/>
<rect x="175.5" y="431.6" class="st10" width="67.2" height="3.6"/>
<rect x="175.5" y="437.6" class="st10" width="67.2" height="3.6"/>
<rect x="175.5" y="443.7" class="st10" width="67.2" height="3.6"/>
<rect x="175.5" y="449.7" class="st10" width="61.7" height="3.6"/>
<rect x="175.5" y="455.8" class="st10" width="67.2" height="3.6"/>
<rect x="175.5" y="461.8" class="st10" width="67.2" height="3.6"/>
<rect x="259.3" y="408" class="st9" width="83.5" height="62.9"/>
<rect x="267.5" y="413.4" class="st0" width="27.8" height="15.7"/>
<rect x="302" y="413.4" class="st10" width="32.7" height="3.6"/>
<rect x="302" y="419.5" class="st10" width="23" height="3.6"/>
<rect x="302" y="425.5" class="st10" width="32.7" height="3.6"/>
<rect x="267.5" y="431.6" class="st10" width="67.1" height="3.6"/>
<rect x="267.5" y="437.6" class="st10" width="67.1" height="3.6"/>
<rect x="267.5" y="443.7" class="st10" width="67.1" height="3.6"/>
<rect x="267.5" y="449.7" class="st10" width="61.7" height="3.6"/>
<rect x="267.5" y="455.8" class="st10" width="67.1" height="3.6"/>
<rect x="267.5" y="461.8" class="st10" width="67.1" height="3.6"/>
<rect x="351.3" y="408" class="st9" width="83.5" height="62.9"/>
<rect x="359.5" y="413.4" class="st0" width="27.8" height="15.7"/>
<rect x="393.9" y="413.4" class="st10" width="32.7" height="3.6"/>
<rect x="393.9" y="419.5" class="st10" width="23" height="3.6"/>
<rect x="393.9" y="425.5" class="st10" width="32.7" height="3.6"/>
<rect x="359.5" y="431.6" class="st10" width="67.1" height="3.6"/>
<rect x="359.5" y="437.6" class="st10" width="67.1" height="3.6"/>
<rect x="359.5" y="443.7" class="st10" width="67.1" height="3.6"/>
<rect x="359.5" y="449.7" class="st10" width="61.7" height="3.6"/>
<rect x="359.5" y="455.8" class="st10" width="67.1" height="3.6"/>
<rect x="359.5" y="461.8" class="st10" width="67.1" height="3.6"/>
<rect x="167.4" y="481.6" class="st9" width="83.5" height="62.9"/>
<rect x="175.5" y="487" class="st0" width="27.8" height="15.7"/>
<rect x="210" y="487" class="st10" width="32.7" height="3.6"/>
<rect x="210" y="493.1" class="st10" width="23" height="3.6"/>
<rect x="210" y="499.1" class="st10" width="32.7" height="3.6"/>
<rect x="175.5" y="505.2" class="st10" width="67.2" height="3.6"/>
<rect x="175.5" y="511.2" class="st10" width="67.2" height="3.6"/>
<rect x="175.5" y="517.3" class="st10" width="67.2" height="3.6"/>
<rect x="175.5" y="523.3" class="st10" width="61.7" height="3.6"/>
<rect x="175.5" y="529.4" class="st10" width="67.2" height="3.6"/>
<rect x="175.5" y="535.4" class="st10" width="67.2" height="3.6"/>
<rect x="259.3" y="481.6" class="st9" width="83.5" height="62.9"/>
<rect x="267.5" y="487" class="st0" width="27.8" height="15.7"/>
<rect x="302" y="487" class="st10" width="32.7" height="3.6"/>
<rect x="302" y="493.1" class="st10" width="23" height="3.6"/>
<rect x="302" y="499.1" class="st10" width="32.7" height="3.6"/>
<rect x="267.5" y="505.2" class="st10" width="67.1" height="3.6"/>
<rect x="267.5" y="511.2" class="st10" width="67.1" height="3.6"/>
<rect x="267.5" y="517.3" class="st10" width="67.1" height="3.6"/>
<rect x="267.5" y="523.3" class="st10" width="61.7" height="3.6"/>
<rect x="267.5" y="529.4" class="st10" width="67.1" height="3.6"/>
<rect x="267.5" y="535.4" class="st10" width="67.1" height="3.6"/>
<rect x="351.3" y="481.6" class="st9" width="83.5" height="62.9"/>
<rect x="359.5" y="487" class="st0" width="27.8" height="15.7"/>
<rect x="393.9" y="487" class="st10" width="32.7" height="3.6"/>
<rect x="393.9" y="493.1" class="st10" width="23" height="3.6"/>
<rect x="393.9" y="499.1" class="st10" width="32.7" height="3.6"/>
<rect x="359.5" y="505.2" class="st10" width="67.1" height="3.6"/>
<rect x="359.5" y="511.2" class="st10" width="67.1" height="3.6"/>
<rect x="359.5" y="517.3" class="st10" width="67.1" height="3.6"/>
<rect x="359.5" y="523.3" class="st10" width="61.7" height="3.6"/>
<rect x="359.5" y="529.4" class="st10" width="67.1" height="3.6"/>
<rect x="359.5" y="535.4" class="st10" width="67.1" height="3.6"/>
<rect x="167.4" y="552.3" class="st9" width="83.5" height="62.9"/>
<rect x="175.5" y="557.8" class="st0" width="27.8" height="15.7"/>
<rect x="210" y="557.8" class="st10" width="32.7" height="3.6"/>
<rect x="210" y="563.8" class="st10" width="23" height="3.6"/>
<rect x="210" y="569.9" class="st10" width="32.7" height="3.6"/>
<rect x="175.5" y="576" class="st10" width="67.2" height="3.6"/>
<rect x="175.5" y="582" class="st10" width="67.2" height="3.6"/>
<rect x="175.5" y="588" class="st10" width="67.2" height="3.6"/>
<rect x="175.5" y="594.1" class="st10" width="61.7" height="3.6"/>
<rect x="175.5" y="600.2" class="st10" width="67.2" height="3.6"/>
<rect x="175.5" y="606.2" class="st10" width="67.2" height="3.6"/>
<rect x="259.3" y="552.3" class="st9" width="83.5" height="62.9"/>
<rect x="267.5" y="557.8" class="st0" width="27.8" height="15.7"/>
<rect x="302" y="557.8" class="st10" width="32.7" height="3.6"/>
<rect x="302" y="563.8" class="st10" width="23" height="3.6"/>
<rect x="302" y="569.9" class="st10" width="32.7" height="3.6"/>
<rect x="267.5" y="576" class="st10" width="67.1" height="3.6"/>
<rect x="267.5" y="582" class="st10" width="67.1" height="3.6"/>
<rect x="267.5" y="588" class="st10" width="67.1" height="3.6"/>
<rect x="267.5" y="594.1" class="st10" width="61.7" height="3.6"/>
<rect x="267.5" y="600.2" class="st10" width="67.1" height="3.6"/>
<rect x="267.5" y="606.2" class="st10" width="67.1" height="3.6"/>
<rect x="351.3" y="552.3" class="st11" width="83.5" height="62.9"/>
<linearGradient id="SVGID_3_" gradientUnits="userSpaceOnUse" x1="211.31" y1="3.71" x2="211.31" y2="349.38" gradientTransform="matrix(1 0 0 -1 -56.59 736.88)">
	<stop  offset="0" style="stop-color:#808080;stop-opacity:0.25"/>
	<stop  offset="0.54" style="stop-color:#808080;stop-opacity:0.12"/>
	<stop  offset="1" style="stop-color:#808080;stop-opacity:0.1"/>
</linearGradient>
<path class="st13" d="M227.1,387.5H82.3c-7.9,0-14.3,6.4-14.4,14.3c0,0,0,0,0,0v317.1c0,7.9,6.4,14.3,14.3,14.3c0,0,0,0,0,0h144.8
	c7.9,0,14.3-6.4,14.3-14.3l0,0V401.8C241.5,393.9,235,387.5,227.1,387.5C227.1,387.5,227.1,387.5,227.1,387.5z"/>
<path class="st7" d="M80.3,390.2h148.9c6.1,0,11,4.9,11,11v319.7c0,6.1-4.9,11-11,11H80.3c-6.1,0-11-4.9-11-11V401.2
	C69.3,395.1,74.2,390.2,80.3,390.2z"/>
<rect x="81.9" y="421.9" class="st8" width="145.7" height="278.1"/>
<circle class="st9" cx="137.5" cy="406" r="1.3"/>
<path class="st9" d="M145.1,404.7h27.1c0.6,0,1,0.4,1,1v0.6c0,0.6-0.4,1-1,1h-27.1c-0.6,0-1-0.4-1-1v-0.6
	C144.1,405.2,144.6,404.7,145.1,404.7z"/>
<circle class="st9" cx="154.1" cy="713.3" r="9.3"/>
<rect x="105.1" y="438.6" class="st11" width="99.3" height="74.9"/>
<rect x="105.1" y="522.8" class="st9" width="99.3" height="74.9"/>
<rect x="114.8" y="529.3" class="st0" width="33.1" height="18.7"/>
<rect x="155.8" y="529.3" class="st10" width="38.9" height="4.3"/>
<rect x="155.8" y="536.5" class="st10" width="27.4" height="4.3"/>
<rect x="155.8" y="543.7" class="st10" width="38.9" height="4.3"/>
<rect x="114.8" y="550.9" class="st10" width="79.9" height="4.3"/>
<rect x="114.8" y="558.1" class="st10" width="79.9" height="4.3"/>
<rect x="114.8" y="565.3" class="st10" width="79.9" height="4.3"/>
<rect x="114.8" y="572.5" class="st10" width="73.4" height="4.3"/>
<rect x="114.8" y="579.7" class="st10" width="79.9" height="4.3"/>
<rect x="114.8" y="586.9" class="st10" width="79.9" height="4.3"/>
<rect x="105.1" y="607.2" class="st9" width="99.3" height="74.9"/>
<rect x="114.8" y="613.7" class="st0" width="33.1" height="18.7"/>
<rect x="155.8" y="613.7" class="st10" width="38.9" height="4.3"/>
<rect x="155.8" y="620.9" class="st10" width="27.4" height="4.3"/>
<rect x="155.8" y="628.1" class="st10" width="38.9" height="4.3"/>
<rect x="114.8" y="635.3" class="st10" width="79.9" height="4.3"/>
<rect x="114.8" y="642.5" class="st10" width="79.9" height="4.3"/>
<rect x="114.8" y="649.7" class="st10" width="79.9" height="4.3"/>
<rect x="114.8" y="656.9" class="st10" width="73.4" height="4.3"/>
<rect x="114.8" y="664.1" class="st10" width="79.9" height="4.3"/>
<rect x="114.8" y="671.3" class="st10" width="79.9" height="4.3"/>
<linearGradient id="SVGID_4_" gradientUnits="userSpaceOnUse" x1="462.2556" y1="-6.7168" x2="462.2556" y2="186.3271" gradientTransform="matrix(1 0 0 -1 -56.59 736.88)">
	<stop  offset="0" style="stop-color:#808080;stop-opacity:0.25"/>
	<stop  offset="0.54" style="stop-color:#808080;stop-opacity:0.12"/>
	<stop  offset="1" style="stop-color:#808080;stop-opacity:0.1"/>
</linearGradient>
<path class="st14" d="M543.7,642.6c-6.7-8.2-14.9-17.5-13.7-28.4c0.9-8.8-1.3-16.9-0.8-25.7c0.6-12.5-1.9-22.3-10.9-30.4
	c-5.3-4.7-14.1-8.4-16.7-7.4c-5.2,1.9-10.9,1.2-16.2,2.4c-4.1,1-6.8,2.4-8.4,4.2c-3.4,3-3.4,7.3-1.9,11.8
	c-5.3,9.7-1.7,21.8,7.9,27.1c0.6,0.3,1.3,0.7,2,0.9c-3.8,1.6-7,5.2-8.3,12.5c-0.9,5-2.2,10-4,14.8c-0.8,0.4-1.6,0.7-2.4,1
	c0.2,0.1,0.4,0.1,0.6,0.2c-0.4,0.2-0.8,0.3-1.2,0.4c0.7,0.3,1.5,0.5,2.2,0.6c-2.7,7.1-6.4,13.8-10.9,19.9c0,0-11.3,2.5-15.7-1.9
	c0,0,0.7,0.8,1.7,2.1c-4.3-1.8-11.4-4.7-17.4-7.1c-4.4-1.7-5.5,0-5.5,2.4c-1.1,0.1-2.1,0.5-3.1,1c-1.3-0.8-2.7-1.6-4.1-2.2
	c-2.5-0.6-10.7-5-18.9,10c-4.8,8.7-17,24.7-26.4,36.4c-18.3,8.4-42,19-50.8,21.7h-5.6c-0.7-1.2-1.3-2-1.3-2l-0.4,0.3l-0.2-0.3
	c0,0-11.1,7.7-22.4,7.8c-1.6,0-3.2-0.2-4.8-0.6c-5.2-1.3-8.8-1.9-11.5-1.8c-3.1,0-4.8,0.7-5.9,2.1l0,0c-0.1,0.2-0.3,0.4-0.4,0.6l0,0
	c-0.1,0.2-0.2,0.4-0.3,0.6l0,0c-0.1,0.2-0.2,0.5-0.3,0.7c-0.1,0.4,0.1,0.9,0.4,1.2c0.2,0.2,0.3,0.4,0.5,0.6l0.3,0.3
	c2.2,2.1,4.7,4,7.2,5.6c0.9,0.6,1.9,1.3,2.9,1.9l2,1.2l1.7,1.1l0.7,0.4l0.8,0.5l1.4,0.8l0.8,0.5l1.6,0.9l1.3,0.8
	c3.3,2,6.6,3.8,9.6,5.5l2.1,1.2l0.2,0.1l1.3,0.7l2.3,1.3l1.6,0.9l0.7,0.4l0.8,0.4l0.2,0.1l1.4,0.8c0.6,0.1,1.2-0.1,1.6-0.4
	c0.4-1.7,1.4-5.3,2.4-5.6s5.6-8.2,6.9-13.5h12.3c2.4-0.2,4.8-0.6,7.2-1.1c-3.2,2.3-6.3,3.7-8.8,3.1c-5.2-1.3-10,1.9-10.5,5l-0.1,0.2
	c0,0.1,0,0.1,0,0.2s0,0.2,0,0.2s0,0.1,0,0.2s0,0.2,0,0.2s0,0.1,0,0.2s0,0.2,0,0.2s0,0.1,0,0.2s0,0.2,0.1,0.3s0,0.1,0,0.2
	c0,0.1,0.1,0.2,0.1,0.3v0.1c0.1,0.1,0.1,0.3,0.2,0.4l0.1,0.1l0.2,0.3l0.1,0.1l0.2,0.2l0.2,0.1l0.3,0.2l0.2,0.1l0.3,0.2l0.2,0.1
	l0.4,0.2l0.2,0.1c0.2,0.1,0.5,0.2,0.7,0.3s0.9,0.3,1.4,0.4l0.5,0.1l0.8,0.2l0.4,0.1l1.7,0.3l0.8,0.2l0.7,0.1l1.5,0.3l3,0.5l2.6,0.4
	l3.5,0.5l0.8,0.1l1.2,0.2l1.8,0.2l1.2,0.2l0,0l3.1,0.4l1,0.1l2,0.2c2.6,0.3,5.1,0.6,7.5,0.9l2.7,0.3l1.4,0.2l0.6,0.1l1.6,0.2
	l0.9,0.1l1.1,0.1l1.6,0.2h0.2l1,0.1l0,0c0.5,0,0.9-0.3,1-0.8c0,0,0,0,0-0.1l0,0l0,0c0,0,0-0.1,0-0.1c0.1-0.1,0.1-0.3,0.1-0.5
	c0-1.5,0.2-3,0.6-4.4c0.1-0.3,0.1-0.5,0.2-0.8l0.1-0.3c0.1-0.3,0.2-0.6,0.4-0.9c0.1-0.2,0.2-0.5,0.2-0.7l0.1-0.2
	c0-0.1,0.1-0.3,0.1-0.4c1.3-4.3-0.3-12.4-0.7-15.5c-0.1-1-0.4-2-0.7-3c0.1,0,0.2,0,0.2,0c0.7-0.2,1.3-0.6,1.8-1
	c9.3-3.3,17.1-7.1,19.6-10.9c4-1.1,8.3-0.6,12,1.3c4.8,2.4,41.1,14.2,58.1,19.7c3,2.6,5.4,4.2,6.7,4c0,0,21.5,3.5,30.2-3.3
	c0.8,0.5,1.3,0.8,1.3,0.8s12.6-6.3,14.5-14.4c0.6-2.6,1.2-6.5,1.7-10.8c2.9-2.9,4.6-6.9,4.6-11.1c0.4-13.7,5.7-29.2,9.6-43.1
	c4.8,0.4,6.6-0.5,11-2.7l-0.2-0.3L543.7,642.6z M471.5,663l-2.4-0.8c0.8-1.1,1.5-2.3,2.1-3.5L471.5,663z M458,668.8l14.6,8.8
	l0.1,1.8c-0.2,1.4-0.1,2.7,0.1,4.1C466.4,677.7,458.9,670.7,458,668.8L458,668.8z M452.1,656c-1.6-0.7-2.9-1.3-3.8-1.7l3.4,0.2
	C451.8,655,452,655.5,452.1,656L452.1,656z M413.1,670.3c0,0,2.5-5.6,8.2,3.8c0.9,1.5,2.5,3.8,4.6,6.7l-16.5-2.2
	C411.1,676,412.3,673.2,413.1,670.3L413.1,670.3z"/>
<path class="st15" d="M449.3,647.7c0,0-11.5-4.9-20.6-8.5s-3.6,8.5-3.6,8.5s15.2,4.3,15.2,4.9s12.8,1.2,12.8,1.2L449.3,647.7z"/>
<path class="st16" d="M449.3,647.7c0,0-11.5-4.9-20.6-8.5s-3.6,8.5-3.6,8.5s15.2,4.3,15.2,4.9s12.8,1.2,12.8,1.2L449.3,647.7z"/>
<path class="st17" d="M498.4,599.7c0,0-20.6-10.9-24.3,10.3c-2.3,12.9-7.5,25.2-15.2,35.8c0,0-10.9,2.4-15.2-1.8
	c0,0,10.3,12.1,5.5,13.4c0,0,10.9,7.9,15.8,5.5s8.5-18.8,10.3-23.1S483.9,598.5,498.4,599.7z"/>
<path class="st11" d="M498.4,599.7c0,0-20.6-10.9-24.3,10.3c-2.3,12.9-7.5,25.2-15.2,35.8c0,0-10.9,2.4-15.2-1.8
	c0,0,10.3,12.1,5.5,13.4c0,0,10.9,7.9,15.8,5.5s8.5-18.8,10.3-23.1S483.9,598.5,498.4,599.7z"/>
<path class="st15" d="M486.9,592.4c0,0,12.8,14.6,13.4,26.7s14.6-12.8,15.8-13.4s-12.1-21.2-13.4-27.9S486.9,592.4,486.9,592.4z"/>
<polygon class="st15" points="495.7,598.7 487.7,606 491.5,621.3 501.8,611.6 500.6,601.9 "/>
<polygon class="st15" points="327.8,706.6 313.9,706.6 319.3,719.9 332.7,716.3 "/>
<path class="st11" d="M317.1,704.7c0,0-14.4,10.1-26.8,6.9s-15.7-2-17.1,2.1c-1.3,3.7,34.5,23.4,40.2,26.5c0.3,0.2,0.7,0.1,0.9-0.2
	c0-0.1,0.1-0.2,0.1-0.2c0.4-1.7,1.3-5.2,2.3-5.5c1.3-0.3,7.3-11.5,7-15.9S317.1,704.7,317.1,704.7z"/>
<path class="st18" d="M316.5,704.7c0,0-14.4,10.1-26.8,6.9s-15.7-2-17.1,2.1c-1.3,3.7,34.5,23.4,40.2,26.5c0.3,0.2,0.7,0.1,0.9-0.2
	c0-0.1,0.1-0.2,0.1-0.2c0.4-1.7,1.3-5.2,2.3-5.5c1.3-0.3,7.3-11.5,7-15.9S316.5,704.7,316.5,704.7z"/>
<path class="st17" d="M435.9,680.5l-40.7-5.5c0,0-66.2,31.6-74.1,32.2l1.8,14h12.1c4.9,0,52.2-10.3,58.9-20.6c3.9-1,8-0.6,11.5,1.2
	c6.1,3,64.4,21.9,64.4,21.9L435.9,680.5z"/>
<path class="st11" d="M435.9,680.5l-40.7-5.5c0,0-66.2,31.6-74.1,32.2l1.8,14h12.1c4.9,0,52.2-10.3,58.9-20.6c3.9-1,8-0.6,11.5,1.2
	c6.1,3,64.4,21.9,64.4,21.9L435.9,680.5z"/>
<polygon class="st19" points="363.6,699.3 357,707.8 363.6,711.4 373.4,704.2 "/>
<path class="st17" d="M479.6,689.6c0,0-21.8-18.7-23.4-22.1s-37.3-26.5-39.8-27.1s-10.3-4.9-18.2,9.7s-37,49.8-37,49.8
	s9.1,12.8,12.1,12.1s37-29.1,39.5-43.1c0,0,2.4-5.5,7.9,3.6s40.7,52.8,47.4,52.2c0,0,26.1,4.3,31.6-6.1S479.6,689.6,479.6,689.6z"/>
<linearGradient id="SVGID_5_" gradientUnits="userSpaceOnUse" x1="382.57" y1="166.185" x2="473.48" y2="166.185" gradientTransform="matrix(1 0 0 -1 0 792)">
	<stop  offset="0" style="stop-color:#808080;stop-opacity:0.25"/>
	<stop  offset="0.54" style="stop-color:#808080;stop-opacity:0.12"/>
	<stop  offset="1" style="stop-color:#808080;stop-opacity:0.1"/>
</linearGradient>
<rect x="382.6" y="591.6" class="st20" width="90.9" height="68.5"/>
<rect x="386.3" y="594.3" class="st9" width="83.5" height="62.9"/>
<rect x="394.5" y="599.8" class="st0" width="27.8" height="15.7"/>
<rect x="428.9" y="599.8" class="st10" width="32.7" height="3.6"/>
<rect x="428.9" y="605.8" class="st10" width="23" height="3.6"/>
<rect x="428.9" y="611.9" class="st10" width="32.7" height="3.6"/>
<rect x="394.5" y="618" class="st10" width="67.1" height="3.6"/>
<rect x="394.5" y="624" class="st10" width="67.1" height="3.6"/>
<rect x="394.5" y="630" class="st10" width="67.1" height="3.6"/>
<rect x="394.5" y="636.1" class="st10" width="61.7" height="3.6"/>
<rect x="394.5" y="642.2" class="st10" width="67.1" height="3.6"/>
<rect x="394.5" y="648.2" class="st10" width="67.1" height="3.6"/>
<path class="st18" d="M492.1,600.6c0,0-7.6,3.3-8.2,17.3s-14,37.6-14,37.6l1.2,27.9c0,0,14.6,14.6,15.8,23.7s11.5,15.2,11.5,15.2
	s12.1-6.1,14-14c1.9-7.9,3-27.3,6.1-34.6s1.2-52.8,1.2-52.8l-9.1-15.8l-4.9-5.5L493,614.3C493,614.3,486,604.9,492.1,600.6z"/>
<path class="st11" d="M474.1,674.4c0,0-1.8-21.9,3.6-26.7l10.9-31c0,0,4-14.9,3.3-16.1s-14.3,11.8-14.3,11.8l-9.1,32.2l2.4,34
	L474.1,674.4z"/>
<path class="st17" d="M473.5,674.4c0,0-1.8-21.9,3.6-26.7l10.9-31c0,0,4.3-15.2,3.6-16.4s-14.6,12.1-14.6,12.1l-9.1,32.2l2.4,34
	L473.5,674.4z"/>
<path class="st19" d="M477.8,664.7c0,0-30.4-9.7-32.2-12.1s-21.3-18.2-27.9-7.3s24.9,14,24.9,14l32.2,19.4L477.8,664.7z"/>
<path class="st11" d="M365,707.7l-9-1.6c0,0-14.7,18.8-22.4,16.9s-14.7,6.3-6.6,9c7.3,2.4,38.9,5.7,45,6.4c0.5,0.1,0.9-0.3,1-0.8
	c0,0,0-0.1,0-0.1c0-2.3,0.5-4.7,1.3-6.8c1.6-4,0-12.5-0.5-15.8c-0.3-1.9-0.9-3.8-1.8-5.5L365,707.7z"/>
<path class="st18" d="M364.8,708.3l-9-1.6c0,0-14.7,18.9-22.4,16.9s-14.7,6.3-6.6,9c7.3,2.4,38.9,5.7,45,6.4c0.5,0.1,0.9-0.3,1-0.8
	c0,0,0-0.1,0-0.1c0-2.3,0.5-4.7,1.3-6.8c1.6-4,0-12.5-0.5-15.8c-0.3-1.9-0.9-3.8-1.8-5.5L364.8,708.3z"/>
<circle class="st11" cx="491.5" cy="580" r="19.4"/>
<circle class="st19" cx="489.6" cy="580" r="19.4"/>
<path class="st17" d="M508.8,599.1c0,0,23.1,7.9,23.1,24.3s-12.8,42.5-13.4,63.8s-34,18.2-34,18.2s-4.9-71.6,0-77.1
	S511.2,601.5,508.8,599.1z"/>
<path class="st11" d="M504.5,633.1c0,0-8.5,37.6-28.5,31c0,0-10.3,15.2-3,21.9c0,0,17.6,4.3,29.1-7.3c11.5-11.5,20-15.8,21.8-29.8
	s3-33.4-3-31.6S504.5,633.1,504.5,633.1z"/>
<path class="st17" d="M505.1,632.5c0,0-8.5,37.6-28.5,31c0,0-10.3,15.2-3,21.9c0,0,17.6,4.3,29.1-7.3c11.5-11.5,20-15.8,21.9-29.8
	s3-33.4-3-31.6S505.1,632.5,505.1,632.5z"/>
<path class="st21" d="M374.6,729.4c0,0.1,0,0.1-0.1,0.2c-0.4,1-0.8,2.1-1,3.2c0.1-0.5,0.3-1,0.5-1.5
	C374.3,730.7,374.5,730,374.6,729.4z"/>
<path class="st21" d="M327.3,730.9c-2.5-0.8-3.5-2.2-3.6-3.6c-1,2-0.4,4.2,3.1,5.4c7.3,2.4,38.9,5.7,45,6.4c0.5,0.1,0.9-0.3,1-0.8
	c0,0,0-0.1,0-0.1l0,0c0-0.5-0.3-0.8-0.8-0.9C365.4,736.5,334.5,733.2,327.3,730.9z"/>
<path class="st21" d="M273.4,712.6c0.2-0.4,0.4-0.9,0.6-1.3c-0.7,0.7-1.1,1.5-1.4,2.4c-1.3,3.7,34.5,23.4,40.2,26.5
	c0.3,0.2,0.7,0.1,0.9-0.2c0-0.1,0.1-0.1,0.1-0.2l0,0c0.1-0.3-0.1-0.6-0.3-0.7C307.1,735.6,272,716.3,273.4,712.6z"/>
<path class="st21" d="M316.9,733.2c-0.3,0.1-0.6,0.5-0.9,1.1h0.1c0.3-0.1,0.7-0.6,1.3-1.4C317.2,733.1,317,733.2,316.9,733.2z"/>
<path class="st11" d="M486.9,597.1c-1.7,3.8-2.1,8-3.3,12c-2.5,7.8-8.5,14.1-16.3,16.9c6.3,2.5,13.8-0.6,18.6-5.7
	s7.7-11.9,10.5-18.5c7.1,4.8,6.2,15.7,8.6,24.2c2.1,7.5,7.3,13.7,14.3,17.1c7,3.1,15,3,21.9-0.4c-6.5-7.9-15.7-18.8-14.6-29.3
	c0.9-8.5-5.2-15.1-4.8-23.6c0.6-12.2-4-18.3-12.7-26.1c-5.1-4.6,2.9-11-3.6-9.1c-2.6,0.7-5.3-2-7.8-1.1c-5,1.8-10.5,1.1-15.7,2.3
	C455.1,562,489.4,591.6,486.9,597.1z"/>
<path class="st22" d="M487.5,596.5c-1.7,3.8-2.1,8-3.3,12c-2.5,7.8-8.5,14.1-16.3,16.9c6.3,2.5,13.8-0.6,18.6-5.7
	s7.7-11.9,10.5-18.5c7.1,4.8,6.2,15.7,8.6,24.2c2.1,7.5,7.3,13.7,14.3,17.1c7,3.1,15,3,21.9-0.4c-6.5-7.9-15.1-17-14-27.5
	c0.9-8.5-0.4-17.3,0-25.9c0.6-12.2-5.3-23.9-14.1-31.7c-5.1-4.6-13-5.1-15.6-4.2c-5,1.8-10.5,1.1-15.7,2.3
	C455.7,561.4,490,591,487.5,596.5z"/>
<linearGradient id="SVGID_6_" gradientUnits="userSpaceOnUse" x1="987.4189" y1="-52.4336" x2="987.4189" y2="376.5875" gradientTransform="matrix(-1 0 0 -1 1243.38 736.88)">
	<stop  offset="0" style="stop-color:#808080;stop-opacity:0.25"/>
	<stop  offset="0.54" style="stop-color:#808080;stop-opacity:0.12"/>
	<stop  offset="1" style="stop-color:#808080;stop-opacity:0.1"/>
</linearGradient>
<path class="st23" d="M163.8,781.4c35-10.8,55.7-9.9,55.7-9.9l-2.9-16.3c0.9-0.6,1.7-1.3,2.4-2.1c0,0-3.6-19.8,0-24.7
	s13.5-49.8,13.5-49.8v-15.3c18-6.3,39-42.6,39-42.6l26.5,68.2c0,0,26.5,52.5,30.1,54.3c2.9,1.4,4.3,13.2,4.8,17.8l-0.2,0.1
	c0.1,1.1,0.2,1.8,0.2,1.8l0.2-0.1v0.1c0.4-0.3,0.9-0.6,1.4-0.8c-5.2,5.9-12.9,14.5-19.4,20.1c-3.5,3.1,2.8,5.5,5.8,5.5
	c1.7-0.1,3.4,0.2,5,0.7c15.1,5.2,39.9-13.8,39.9-13.8l-6.2-17.3c1.6-0.1,2.6-0.2,2.6-0.2s-20.2-70.9-29.6-77.7c-3-2.2-5.7-4.7-8-7.6
	c-4.5-5.5-6.7-12.4-6.3-19.4l3.3-58.2c5.3-0.8,8.8-1.4,8.8-1.4s1.2-15.9,1.2-28.1c0-6.3-0.3-11.9-1.2-14.1
	c-1.1-2.6-1.5-7.7-1.5-12.9c0-7,0.6-13.6,0.6-13.6s7.2-9.4,17.1-31c4.4-9.5,5.5-17,5.4-22.4c0.1-2.5-0.2-5-0.7-7.5
	c-0.6-2.4-2.1-4.6-4.2-5.9c-5.7-3.5-18.6-12.1-22.4-20.4c-4.8-10.6-11.8-12.1-12.1-12.1l-0.4-1.9c2.7-2.2,4.6-5.2,5.6-8.5
	c1.5-4.5,1.8-9.3,3-13.9c0.6-2.2,1.4-4.3,2-6.5c0.6-2.2,0.8-4.5,0.8-6.8c0.1-3.3-0.6-6.6-2-9.6c-2.3-4.8-6.9-8.5-12.2-9.1
	c-2.9-0.3-6.1,0.2-8.5-1.5c-1.6-1.2-2.5-3.2-4-4.5c-2.9-2.7-7.4-2.6-11.1-1.3c-5,1.7-9.3,5-12.2,9.5c-1.7,2.7-2.9,5.7-5.2,8
	c-1.9,1.9-4.3,3.1-6.4,4.8c-3.1,2.4-4.9,6.1-5,10c0,0,0,0.1,0,0.1c0,0.3,0,0.5,0,0.8c0.1,3.9,2.8,7.7,6.6,8.5c1,0.2,2,0.2,3,0.1
	c-3.5,12.9,4.1,26.2,17.1,29.7c0.3,0.1,0.6,0.2,0.9,0.2c-0.1,0.3-0.1,0.6-0.2,1h0.2c-0.4,1.6-1,3.1-1.6,4.6h-0.3l0.7-1.3l-10.3-0.7
	c-3-0.2-6,0.3-8.7,1.6c-3.5,1.7-7.4,5-7.9,11.2c-0.9,11.6-22.9,29.1-22.9,29.1c-7.6,12.1-57.5,14.4-57.5,14.4s0.2,0.3,0.3,0.4
	l-1-0.2l-3.8-0.7c0,0-11.7-34.6-22.9-28.3s19.3,40.4,19.3,40.4l8.8,0.6l0.9,0.1c-0.3,2.2-0.8,4.5-1.4,6.6l0,0
	c-0.1,0.4-0.2,0.7-0.2,0.8l0,0c0,0,23.2-2.7,42.9-2.3h1.8l1.3-0.1c1,10.8,16.4,32.8,16.4,32.8l9.5,2l0.7,0.2
	c-3.1,6.4-7,12.3-11.6,17.6l-3.1,17.5l0.3-0.1l-0.3,1.4c0.5-0.1,1-0.4,1.5-0.8c-6.1,16.3-16.4,41.7-23.4,50.6
	c-10.8,13.5-9.4,35-9.4,35s-10.8,56.6-10.3,66.9c0.1,5-1.3,9.9-3.9,14.1c-2.1,2.4-4,5.1-5.5,7.9c-8.1,13.9-21.1,13-21.1,13
	C150.4,775.5,163.8,781.4,163.8,781.4z M233.2,507.6L233.2,507.6l1.2-0.5l0.3-0.1l1.1-0.5l0.2-0.1l1-0.5l0.2-0.1l1.1-0.5l0.3-0.1
	l1-0.5h0.1l1-0.6l0.2-0.1l1-0.6l0.2-0.1l0.9-0.5l0.2-0.1l0.9-0.6l0.2-0.1l0.9-0.6l0.1,0l0.9-0.6l0.2-0.1l0.8-0.6l0.1-0.1l0.7-0.5
	l0.2-0.1l0.8-0.6l0.2-0.1l0.7-0.5h0.1l0.7-0.6l0.1-0.1l0.7-0.5l0.1,0l0.6-0.5l0.1-0.1l0.6-0.5l0.1-0.1l0.5-0.5l0,0l0.5-0.5l0.1-0.1
	l1-1l1.5-0.1c1.2,1.6,1.7,4.5,1.8,7.7c-0.1,8.4-2.7,18.8-2.7,18.8c-0.2,5.1-1.1,10.2-2.7,15.1c-1.1-0.1-2.2-0.3-3.2-0.8
	c0,0-0.1,0.3-0.1,0.9l-0.9-0.2l-4.4-1.1C244.1,533.7,240.5,515.2,233.2,507.6z"/>
<path class="st24" d="M354.9,746.7l8.3,23.2c0,0-22.8,17.5-37.6,13.9c-2.2-0.6-4.5-0.9-6.8-1.1c-3.1-0.2-8.4-2.5-5.1-5.3
	c10.5-9.2,24.5-26.3,24.5-26.3L354.9,746.7z"/>
<path class="st24" d="M216.4,744.5l3.9,22.3c0,0-20.2-0.9-54.3,9.6c0,0-13.1-5.7-2.2-12.7c0,0,12.7,0.9,20.6-12.7
	s12.7-11.8,12.7-11.8L216.4,744.5z"/>
<path class="st25" d="M320.7,582.3l-3.9,68c-0.4,7.2,2,14.4,6.7,19.9c2.1,2.5,4.6,4.8,7.2,6.8c9.2,6.6,28.9,75.8,28.9,75.8
	s-22.4,1.3-28.5,5.7c0,0-1.3-17.5-4.8-19.3s-29.4-53-29.4-53l-25.9-66.6c0,0-20.6,35.5-38.1,41.6v14.9c0,0-9.6,43.8-13.1,48.6
	s0,24.1,0,24.1s-10.1,12.7-33.3-0.9c0,0,7.4-8.3,7-18.4s10.1-65.3,10.1-65.3s-1.3-21,9.2-34.2s28-63.5,28-63.5l12.1-26L320.7,582.3z
	"/>
<g class="st26">
	<path d="M355.6,752.8c0,0-19.7-69.2-28.9-75.8c-2.8-2.1-5.4-4.5-7.6-7.2c-4.5-5.4-6.8-12.4-6.3-19.4l3.9-68l-64.6-39.8l0.9-1.9
		l67.7,41.7l-3.9,68c-0.4,7,1.8,14,6.3,19.4c2.2,2.7,4.8,5.1,7.6,7.2c9.2,6.6,28.9,75.8,28.9,75.8s-22.4,1.3-28.5,5.7
		c0,0,0-0.7-0.2-1.8C339.5,753.8,355.6,752.8,355.6,752.8z"/>
	<path d="M215.8,748.9c0,0-3.5-19.3,0-24.1s13.1-48.6,13.1-48.6v-14.9c17.5-6.1,38.1-41.6,38.1-41.6l1.5,4
		c-5.9,9.4-21.8,32.8-35.7,37.7v14.9c0,0-9.6,43.8-13.1,48.6s0,24.1,0,24.1s-4.9,6.2-15.7,5.3C212.1,753.5,215.8,748.9,215.8,748.9z
		"/>
</g>
<path class="st19" d="M170,506.1l8.6,0.6l4.5,0.3v-11l-6-1.1l-3.7-0.7c0,0-11.4-33.7-22.4-27.6S170,506.1,170,506.1z"/>
<path class="st19" d="M308,415.8c0,0,5.7,21.9,7.5,35.5c1.8,13.6-40.8,2.6-40.8,2.6s16.2-19.7,7-30.2L308,415.8z"/>
<path class="st27" d="M262,507l-0.9,8.3l13.6-0.9l13.6-11.8l13.6-38.1l8.8-13.6l6.6-8.3l-2.6-10.1c0,0-1.2,1-3.2,2.6
	c-6.7,5.1-22.3,15.7-33.8,12.8c-0.5-0.1-1.1-0.3-1.6-0.5l-17.1,29.4L262,507z"/>
<path class="st11" d="M311.1,429.9c0,0,7,1.3,11.8,11.8c3.7,8.1,16.2,16.4,21.8,19.9c2.2,1.3,3.7,3.4,4.2,5.9
	c1.1,5,1.6,14.3-4.6,27.7c-9.6,21-16.6,30.2-16.6,30.2s-1.8,21,0.9,27.2s0,39.9,0,39.9s-46,8.8-61.4,0s-13.1-42.6-13.1-42.6
	s-14.5,30.7-19.7,31.6l3-17.1c0,0,17.1-18.4,18-42.1c0,0,5.3-21.5,0.9-27.2c0,0-74.1,6.1-78.4,0.9c0,0,48.6-2.2,56.1-14
	c0,0,21.5-17.1,22.4-28.5c0.3-4.3,2.7-8.2,6.6-10.3c3-1.7,6.4-2.5,9.8-2.2l9.9,0.7c0,0-17.1,30.2-16.2,34.2s-0.9,35.9-0.9,35.9
	s19.7-42.5,28.5-47.3s18.8-24.6,18.8-24.6L311.1,429.9"/>
<path class="st11" d="M262,507l-0.9,8.3l13.6-0.9l13.6-11.8l13.6-38.1l8.8-13.6l6.6-8.3l-2.6-10.1c0,0-1.2,1-3.2,2.6l0.6,3.5
	c0,0-10.1,19.8-18.8,24.6s-28.5,47.3-28.5,47.3s1.8-32,0.9-35.9c-0.6-2.7,7.1-17.5,12.1-26.7c-0.5-0.1-1.1-0.3-1.6-0.5l-17.1,29.4
	L262,507z"/>
<path class="st11" d="M178.6,506.7l4.5,0.3v-11l-6-1.1C179.2,497.7,179.2,502.5,178.6,506.7z"/>
<path class="st28" d="M311.1,428.5c0,0,7,1.3,11.8,11.8c3.7,8.1,16.2,16.4,21.8,19.9c2.2,1.3,3.7,3.4,4.2,5.9
	c1.1,5,1.6,14.3-4.6,27.7c-9.6,21-16.6,30.2-16.6,30.2s-1.8,21,0.9,27.2s0,39.9,0,39.9s-46,8.8-61.4,0s-13.1-42.5-13.1-42.5
	s-14.5,30.7-19.7,31.5l3-17.1c0,0,17.1-18.4,18-42.1c0,0,5.3-21.5,0.9-27.2c0,0-17.1,18.4-36.4,18s-42.1,2.2-42.1,2.2s4.4-14,0-19.3
	c0,0,48.6-2.2,56.1-14c0,0,21.5-17.1,22.4-28.5c0.2-4.4,2.7-8.3,6.6-10.4c3-1.7,6.4-2.5,9.8-2.2l9.9,0.7c0,0-17.1,30.2-16.2,34.2
	s-0.9,35.9-0.9,35.9s19.7-42.5,28.5-47.3s18.8-24.6,18.8-24.6L311.1,428.5"/>
<path class="st11" d="M320.7,474.5c0,0-10.5,35.5-16.6,39.9s-43.4,26.7-54.3,21.5c0,0-2.6,13.2,1.3,16.2c0,0,40.9-1.6,41.2-1.8
	c0,0,26.7-3.5,31.1-16.7s9.6-35.5,9.6-35.5L320.7,474.5z"/>
<ellipse class="st29" cx="264.6" cy="512.4" rx="1.5" ry="2.2"/>
<ellipse class="st29" cx="260.2" cy="527.8" rx="1.5" ry="2.2"/>
<g class="st26">
	<path d="M325.5,590.7c0,0,2.6-33.7,0-39.9s-0.9-27.2-0.9-27.2s7-9.2,16.6-30.2c6.1-13.4,5.7-22.7,4.6-27.7
		c-0.6-2.5-2.1-4.6-4.3-5.9c-5.6-3.4-18.1-11.8-21.8-19.9c-2.7-5.9-6.1-8.9-8.6-10.4l-0.2-1c0,0,7,1.3,11.8,11.8
		c3.7,8.1,16.2,16.4,21.8,19.9c2.2,1.3,3.7,3.4,4.3,5.9c1.1,5,1.6,14.3-4.6,27.7c-9.6,21-16.6,30.2-16.6,30.2s-1.8,21,0.9,27.2
		s0,39.9,0,39.9s-32.9,6.3-52.3,2.9C295.9,596.3,325.5,590.7,325.5,590.7z"/>
	<path d="M266.4,474.5c0.6,2.7,0,18.6-0.5,28.3c-2.1,4.3-3.5,7.2-3.5,7.2s1.8-32,0.9-35.9c-0.8-3.8,14.6-31.3,16.1-34l3.2,0.2
		C282.6,440.3,265.5,470.6,266.4,474.5z"/>
	<path d="M216.9,511.3c19.3,0.4,36.4-18,36.4-18c0.5,0.7,0.9,1.5,1.1,2.4c-5,4.7-19,16.4-34.4,16c-19.3-0.4-42.1,2.2-42.1,2.2
		s0.1-0.3,0.2-0.8C191,511.8,203.9,511.2,216.9,511.3z"/>
	<path d="M251,548.2c0,0-0.2,2.7-0.1,6.8c-4.6,9-12.9,24.5-16.6,25.1l0.6-3.6C241.4,568.5,251,548.2,251,548.2z"/>
</g>
<linearGradient id="SVGID_7_" gradientUnits="userSpaceOnUse" x1="203.725" y1="275.5" x2="203.725" y2="354.44" gradientTransform="matrix(1 0 0 -1 0 792)">
	<stop  offset="0" style="stop-color:#808080;stop-opacity:0.25"/>
	<stop  offset="0.54" style="stop-color:#808080;stop-opacity:0.12"/>
	<stop  offset="1" style="stop-color:#808080;stop-opacity:0.1"/>
</linearGradient>
<rect x="151.4" y="437.6" class="st30" width="104.8" height="78.9"/>
<rect x="154.1" y="439.6" class="st9" width="99.3" height="74.9"/>
<rect x="163.8" y="446.1" class="st0" width="33.1" height="18.7"/>
<rect x="204.8" y="446.1" class="st10" width="38.9" height="4.3"/>
<rect x="204.8" y="453.3" class="st10" width="27.4" height="4.3"/>
<rect x="204.8" y="460.5" class="st10" width="38.9" height="4.3"/>
<rect x="163.8" y="467.7" class="st10" width="79.9" height="4.3"/>
<rect x="163.8" y="474.9" class="st10" width="79.9" height="4.3"/>
<rect x="163.8" y="482.1" class="st10" width="79.9" height="4.3"/>
<rect x="163.8" y="489.3" class="st10" width="73.4" height="4.3"/>
<rect x="163.8" y="496.5" class="st10" width="79.9" height="4.3"/>
<rect x="163.8" y="503.7" class="st10" width="79.9" height="4.3"/>
<path class="st19" d="M238.8,543.8l9.3,2l7.3,1.5l-3.9-11l-2.7-0.7l-4.3-1.1c0,0-6.1-30.7-18.4-28.5S238.8,543.8,238.8,543.8z"/>
<path class="st11" d="M248.1,545.7l7.3,1.6l-3.9-11l-2.7-0.7C248.1,538.9,247.9,542.3,248.1,545.7z"/>
<path class="st28" d="M320.7,473.7c0,0-10.5,35.5-16.6,39.9s-43.4,26.7-54.3,21.5c0,0-2.6,13.2,1.3,16.2c0,0,40.9-1.6,41.2-1.8
	c0,0,26.7-3.5,31.1-16.7s9.6-35.5,9.6-35.5L320.7,473.7z"/>
<path class="st11" d="M307.6,416.7c0,0,0.9,3.4,2.1,8.4c-5,9.4-15.7,14.4-26.1,12c1-4.5,0.8-9-2.3-12.6L307.6,416.7z"/>
<circle class="st19" cx="289.2" cy="413.2" r="23.7"/>
<path class="st11" d="M268.6,406.7c-1.7,0.5-3.5,0.6-5.3,0.3c-3.7-0.8-6.3-4.5-6.4-8.3c0.1-3.8,1.9-7.4,4.9-9.8
	c2-1.7,4.4-2.9,6.2-4.7c2.2-2.2,3.4-5.2,5-7.8c2.8-4.3,7-7.6,11.9-9.2c3.6-1.2,8.1-1.4,10.9,1.3c1.4,1.4,2.3,3.3,3.9,4.4
	c2.3,1.6,5.5,1.2,8.3,1.5c5.2,0.8,9.7,4.1,11.9,8.9c2.1,4.8,2.6,10.1,1.2,15.2c-0.5,2.1-1.4,4.2-1.9,6.4c-1.2,4.5-1.5,9.1-2.9,13.5
	s-4.4,8.7-8.8,10c0.4-4.9-0.6-9.9-2.8-14.3c-0.4-1-1.1-1.8-2-2.2c-0.8-0.2-1.6-0.2-2.4,0c-5.5,0.8-11.2-0.3-16-3.2
	c-1.7-1-4.3-4.5-6.1-4.9C275.7,403.4,271,406.1,268.6,406.7z"/>
<path class="st22" d="M268.6,405.8c-1.7,0.5-3.5,0.6-5.3,0.3c-3.7-0.8-6.3-4.5-6.4-8.3c0.1-3.8,1.9-7.4,4.9-9.8
	c2-1.7,4.4-2.9,6.2-4.7c2.2-2.2,3.4-5.2,5-7.8c2.8-4.3,7-7.6,11.9-9.2c3.6-1.2,8.1-1.4,10.9,1.3c1.4,1.4,2.3,3.3,3.9,4.4
	c2.3,1.6,5.5,1.2,8.3,1.5c5.2,0.8,9.7,4.1,11.9,8.9c2.1,4.8,2.6,10.1,1.2,15.2c-0.5,2.1-1.4,4.2-1.9,6.4c-1.2,4.5-1.5,9.1-2.9,13.5
	s-4.4,8.7-8.8,10c0.4-4.9-0.6-9.9-2.8-14.3c-0.4-1-1.1-1.8-2-2.2c-0.8-0.2-1.6-0.2-2.4,0c-5.5,0.8-11.2-0.3-16-3.2
	c-1.7-1-4.3-4.5-6.1-4.9C275.7,402.5,271,405.3,268.6,405.8z"/>
<path class="st2" d="M86.2,760.3c1.8-1.5,3.2-3.5,3.8-5.8c0.5-2.3-0.5-5-2.7-5.9c-2.5-0.9-5.1,0.8-7.1,2.5s-4.3,3.7-6.9,3.3
	c2.7-2.5,4-6.2,3.2-9.8c-0.1-0.7-0.4-1.4-0.9-2c-1.4-1.5-3.8-0.8-5.5,0.3c-5.2,3.7-6.6,10.7-6.7,17.1c-0.5-2.3-0.1-4.7-0.1-7
	s-0.7-5-2.6-6.2c-1.2-0.7-2.6-1-4-1c-2.3-0.1-4.9,0.2-6.5,1.9c-2,2.1-1.5,5.7,0.3,8s4.3,3.8,6.8,5.4c1.9,1.2,3.6,2.7,4.8,4.6
	c0.1,0.3,0.3,0.5,0.4,0.8h14.6C80.4,764.9,83.4,762.8,86.2,760.3z"/>
<path class="st2" d="M955.2,621.3c1.8-1.5,3.2-3.5,3.8-5.8c0.5-2.3-0.5-5-2.7-5.9c-2.5-0.9-5.1,0.8-7.1,2.5s-4.3,3.7-6.9,3.3
	c2.7-2.5,4-6.2,3.2-9.8c-0.1-0.7-0.4-1.4-0.9-2c-1.4-1.5-3.8-0.8-5.5,0.3c-5.2,3.7-6.7,10.7-6.7,17.1c-0.5-2.3-0.1-4.7-0.1-7
	s-0.7-5-2.6-6.2c-1.2-0.7-2.6-1-4-1c-2.3-0.1-4.9,0.2-6.5,1.9c-2,2.1-1.5,5.7,0.3,8s4.3,3.8,6.8,5.4c1.9,1.2,3.6,2.7,4.8,4.6
	c0.1,0.3,0.3,0.5,0.4,0.8h14.7C949.4,625.9,952.5,623.8,955.2,621.3z"/>
<linearGradient id="SVGID_8_" gradientUnits="userSpaceOnUse" x1="1061.777" y1="83.42" x2="1061.777" y2="502.85" gradientTransform="matrix(1 0 0 -1 -56.59 736.88)">
	<stop  offset="0" style="stop-color:#808080;stop-opacity:0.25"/>
	<stop  offset="0.54" style="stop-color:#808080;stop-opacity:0.12"/>
	<stop  offset="1" style="stop-color:#808080;stop-opacity:0.1"/>
</linearGradient>
<path class="st31" d="M1085.2,320.7c-2.1-6.1-5.1-13.7-7.4-15.5c-0.1-0.1-0.3-0.2-0.5-0.3h-0.3v-7.5l-5.6,0.9
	c-0.9-2.7-1.6-5.5-2-8.3c1.1,1.1,2.8,1.4,4.2,0.8c-0.1-0.1-0.2-0.3-0.3-0.5l0.3-0.1c-0.9-1.5-1.3-3.3-1.3-5.1c0-1.6,0.3-3.2,0.8-4.8
	c1-3.5,2.7-6.7,3.6-10.1c0.6-2.2,0.9-4.5,0.8-6.9c0-3.9-0.9-7.8-2.6-11.3c-0.4-1-1.1-1.9-2-2.6c-0.8-0.4-1.6-0.8-2.4-1.2
	c-1.4-0.9-2.6-2.1-3.5-3.5c-4-4.8-9.3-8.4-15.3-10.2c-1.6-0.6-3.2-0.7-4.9-0.4c-3.8,1-5.1,5.6-8.2,8.1c-2.7,2.1-6.4,2.4-9.7,3.1
	s-6.8,2.1-9.1,4.8c-1.6,1.8-2.4,4.1-2.4,6.5c-0.2,2.3,0.8,4.5,2.7,5.9c2.1,1.4,4.7,1.7,7.1,1c-3.7,12.8,3.7,26.2,16.5,30
	c0.6,0.2,1.2,0.3,1.8,0.4l0.7,1.2l0,0c2,3.7,3.5,7.7,4.5,11.9c-5.1,2.9-10.8,5.6-14.1,5.9c-0.1,1.3-0.4,2.6-0.7,3.9
	c-0.8,3.2-2.3,6.2-4.4,8.8c-4.6,5.2-25.3,44.3-25.3,44.3s-0.7,1.6-1.7,4.2c-12.9,1.6-33.9,3.9-39.7,2.7l-23-21.9
	c0,0-7.4,5.7-6.8,12.6l-4.2-3.9c0,0-21.9,16.7,12.7,27.6l52.6,6.1c-5,15.1-9.7,32.7-8.2,42.3h0.4c1,0,2-0.1,3-0.2L991,441l-5.1,90.7
	c0,0-1.2,16.7,14.4,24.2c0,0,19,55.8,11.5,62.2c0,0,0.9,0.5,2.4,1.1L998.6,633c0,0-11.5,2.9-17.8,2.3c-2.3-0.3-4.5,1.1-5.1,3.4
	c0,0.1,0,0.2-0.1,0.4v0.2c0,0.1,0,0.2,0,0.4s0,0.1,0,0.1s0,0.2,0,0.3s0,0.1,0,0.1s0,0.3,0.1,0.4v0.1c0,0.1,0.1,0.3,0.1,0.4l0.1,0.1
	c0.1,0.1,0.1,0.3,0.2,0.4v0.1c0.1,0.1,0.2,0.3,0.2,0.4l0.1,0.1c0.1,0.1,0.2,0.3,0.3,0.4l0.1,0.1c0.1,0.1,0.3,0.3,0.4,0.4l0.1,0
	l0.4,0.4l0.1,0.1c0.2,0.1,0.3,0.3,0.5,0.4l0.1,0.1c0.2,0.1,0.4,0.2,0.6,0.3h0.1l0.7,0.3h0.1l0.8,0.3l0.2,0.1l0.8,0.3h0.1l0.9,0.2
	h0.1l1,0.2h0.2l1.1,0.2h0.2l1.2,0.1c2.4,0.2,5.6,0.3,9.3,0.2l0,0c0,0,0,0.1,0,0.1s0,0.2,0,0.3v0.1c0,0.1,0,0.3,0.1,0.4v0.1
	c0,0.1,0.1,0.3,0.1,0.4l0.1,0.1c0.1,0.1,0.1,0.3,0.2,0.4v0.1c0.1,0.1,0.2,0.3,0.2,0.4l0.1,0.1c0.1,0.1,0.2,0.3,0.3,0.4l0.1,0.1
	c0.1,0.1,0.3,0.3,0.4,0.4l0.1,0l0.4,0.4l0.1,0.1c0.2,0.1,0.3,0.3,0.5,0.4l0.1,0.1c0.2,0.1,0.4,0.2,0.6,0.3h0.1l0.7,0.3h0.1l0.8,0.3
	l0.2,0.1l0.8,0.3h0.1l0.9,0.2h0.1l1,0.2h0.2l1.1,0.2h0.2l1.2,0.1c15,1.2,62.8-2.3,62.8-2.3v-0.1l0,0v-0.2l0,0
	c0.5-2.2,2.8-15.2-5.4-24.8c0.2-0.3,0.5-0.5,0.7-0.8c0,0-6.3-10.9-2.9-14.4s-17.3-63.3-17.3-63.3s-10.9-17.3-4.6-36.8
	s-0.6-40.9-0.6-40.9s15.1-4.5,15.4-23.1c0-0.6,0-1.1,0-1.7c0.3,0,0.7,0.1,1,0.1c0.2,0,0.4,0,0.6,0c0,0-2.9-10.4,0.6-17.9
	s10.9-0.6,17.8-31.1c5-22.1,9.4-47.5,11.4-59.8C1087,330.6,1086.6,325.5,1085.2,320.7z M953.7,385.5l-5.3-5c1.7,0.7,3.7,1.4,5.8,2.1
	l19.8,2.3C965.3,385.7,957.1,386.1,953.7,385.5L953.7,385.5z"/>
<path class="st32" d="M1003.9,382.5c0,0-40.7,5.7-49.2,4L932,365c0,0-21.5,16.4,12.5,27.1l63.4,7.4L1003.9,382.5z"/>
<path class="st16" d="M1003.9,382.5c0,0-40.7,5.7-49.2,4L932,365c0,0-21.5,16.4,12.5,27.1l63.4,7.4L1003.9,382.5z"/>
<path class="st33" d="M1018.6,612.2l-19.8,17.5c0,0-11.3,2.8-17.5,2.3s-9.1,9.6,5.7,10.8s61.7-2.3,61.7-2.3s4.5-18.1-9.1-28.3
	H1018.6z"/>
<path class="st16" d="M1018.6,612.2l-19.8,17.5c0,0-11.3,2.8-17.5,2.3s-9.1,9.6,5.7,10.8s61.7-2.3,61.7-2.3s4.5-18.1-9.1-28.3
	H1018.6z"/>
<path class="st34" d="M1049.3,632.7c0,2.1-0.3,4.1-0.7,6.1c0,0-47,3.4-61.7,2.3c-7.1-0.5-10.1-3.2-10.6-5.7
	c-0.6,2.9,1.9,6.7,10.6,7.4c14.7,1.1,61.7-2.3,61.7-2.3C1049.1,637.9,1049.3,635.3,1049.3,632.7z"/>
<path class="st19" d="M1041.8,291.5c0,0,12.4,17.5,7.9,29.4s23.7-12.5,23.7-12.5s-9.1-15.8-4.5-32.8L1041.8,291.5z"/>
<path class="st33" d="M1038.4,619l-19.8,17.5c0,0-11.3,2.8-17.5,2.3s-9.1,9.6,5.7,10.8s61.7-2.3,61.7-2.3s4.5-18.1-9.1-28.3H1038.4z
	"/>
<path class="st35" d="M1044,615c-2.9,3.6-7.1,5-11.5,5.3c-9.9,0.5-20.8-5.3-20.8-5.3c7.3-6.2-11.3-61.1-11.3-61.1
	c-15.3-7.3-14.1-23.8-14.1-23.8l5-89.1l1.3-22.4l15.8-9.6l12.5,9.6l11.8,9.1c0.8,2.9,1.3,5.8,1.5,8.8c1.4,20.8-15.1,25.7-15.1,25.7
	s6.8,20.9,0.6,40.2c-6.2,19.2,4.5,36.2,4.5,36.2s20.4,58.8,17,62.2S1044,615,1044,615z"/>
<path class="st16" d="M1044,615c-2.9,3.6-7.1,5-11.5,5.3c-9.9,0.5-20.8-5.3-20.8-5.3c7.3-6.2-11.3-61.1-11.3-61.1
	c-15.3-7.3-14.1-23.8-14.1-23.8l5-89.1l1.3-22.4l15.8-9.6l12.5,9.6l11.8,9.1c0.8,2.9,1.3,5.8,1.5,8.8c1.4,20.8-15.1,25.7-15.1,25.7
	s6.8,20.9,0.6,40.2c-6.2,19.2,4.5,36.2,4.5,36.2s20.4,58.8,17,62.2S1044,615,1044,615z"/>
<path class="st35" d="M1063.8,621.8c-9.6,11.9-32.2,0-32.2,0c0.5-0.4,0.8-0.9,1-1.5c4.2-11.3-14-65.2-14-65.2
	c-15.3-7.3-17-24.9-17-24.9l-4-90.6l-0.5-11.7l23.8-9.1l7.3-2.8l24.3,18.7c1.1,3.9,1.6,7.8,1.6,11.8c-0.3,18.3-15.1,22.7-15.1,22.7
	s6.8,20.9,0.6,40.2s4.5,36.2,4.5,36.2s20.4,58.8,17,62.2S1063.8,621.8,1063.8,621.8z"/>
<path class="st11" d="M1054.1,446.4c-4.9-0.7-14.8-6.6-19.9-9.8c-1.9-1.2-3.2-2-3.2-2s-5.1-14.1-18.7-3.4c-4.4,3.6-9.4,6.4-14.8,8.3
	c-2,0.7-4.2,1.3-6.3,1.6l1.3-22.4l15.8-9.6l12.5,9.6l7.3-2.8l24.3,18.7C1053.6,438.5,1054.1,442.4,1054.1,446.4z"/>
<path class="st36" d="M1084.7,337.9c-2,12.1-6.3,37.1-11.3,58.8c-6.8,30-14.1,23.2-17.5,30.5s-0.6,17.5-0.6,17.5
	c-5.7,0.6-24.3-11.9-24.3-11.9s-5.1-14.1-18.7-3.4c-13.6,10.8-24.3,10.2-24.3,10.2c-2.8-18.7,18.1-68.5,18.1-68.5
	s20.4-38.5,24.9-43.6c2.1-2.5,3.6-5.4,4.4-8.6c0.3-1.3,0.6-2.5,0.7-3.9c7.3-0.6,25.5-13,25.5-13l14.1-2.3v7.4
	c0.2,0.1,0.3,0.2,0.5,0.3c2.3,1.8,5.3,9.3,7.3,15.3C1085.1,327.7,1085.5,332.8,1084.7,337.9z"/>
<path class="st11" d="M1073.4,314.6c0,0-14.7-11.9-36.8,26.6c-22.1,38.5-27.2,32.2-27.2,32.2s4.5,17,2.3,20.4c0,0,15.3-1.1,20.9,0
	s40.7-43,40.7-43S1091.6,326,1073.4,314.6z"/>
<path class="st11" d="M1072.9,312.4c0,0-14.7-11.9-36.8,26.6c-22.1,38.5-27.2,32.2-27.2,32.2s17.5,19.2,23.2,20.4s40.7-43,40.7-43
	S1091,323.7,1072.9,312.4z"/>
<path class="st11" d="M1011.3,390.2c0.2-4.2-1.3-11.6-2.3-15.4c3.4-0.5,5.6-0.8,5.6-0.8l4,17L1011.3,390.2z"/>
<path class="st11" d="M1069.5,276.8l-27.2,15.8c1.1,1.7,2.2,3.4,3.2,5.2c1.6,0.3,3.2,0.5,4.8,0.5c7.3,0,10.6-7.6,15-12.7
	C1064.9,281.4,1068.3,281.3,1069.5,276.8z"/>
<circle class="st19" cx="1049.7" cy="273.4" r="23.8"/>
<linearGradient id="SVGID_9_" gradientUnits="userSpaceOnUse" x1="917.295" y1="347.37" x2="917.295" y2="491.57" gradientTransform="matrix(1 0 0 -1 0 792)">
	<stop  offset="0" style="stop-color:#808080;stop-opacity:0.25"/>
	<stop  offset="0.54" style="stop-color:#808080;stop-opacity:0.12"/>
	<stop  offset="1" style="stop-color:#808080;stop-opacity:0.1"/>
</linearGradient>
<rect x="821.6" y="300.4" class="st37" width="191.3" height="144.2"/>
<rect x="825.9" y="303.7" class="st9" width="182.8" height="137.7"/>
<rect x="843.8" y="315.6" class="st0" width="60.9" height="34.4"/>
<rect x="919.3" y="315.6" class="st10" width="71.5" height="8"/>
<rect x="919.3" y="328.8" class="st10" width="50.3" height="8"/>
<rect x="919.3" y="342.1" class="st10" width="71.5" height="8"/>
<rect x="843.8" y="355.3" class="st10" width="147" height="8"/>
<rect x="843.8" y="368.6" class="st10" width="147" height="8"/>
<rect x="843.8" y="381.8" class="st10" width="147" height="8"/>
<rect x="843.8" y="395" class="st10" width="135.1" height="8"/>
<rect x="843.8" y="408.3" class="st10" width="147" height="8"/>
<rect x="843.8" y="421.5" class="st10" width="147" height="8"/>
<path class="st11" d="M1019.6,254.1c2.4-2.5,5.5-4.1,8.9-4.7c3.3-0.7,6.9-0.9,9.6-3c3-2.4,4.3-6.9,8-7.9c1.6-0.3,3.3-0.2,4.8,0.4
	c5.9,1.8,11.1,5.3,15,10c0.9,1.4,2.1,2.5,3.4,3.5c0.8,0.3,1.6,0.7,2.4,1.2c0.8,0.7,1.5,1.5,1.9,2.5c2.7,5.4,3.3,11.5,1.7,17.3
	c-0.9,3.4-2.6,6.6-3.6,10s-1.2,7.2,0.6,10.3c-1.7,0.9-3.9-0.2-5-1.9s-1.4-3.6-2-5.5c-1.1-3.7-3.3-7-6.1-9.5c-1.8-1.6-5-2.6-6.2-0.6
	c-0.5,0.8-0.4,1.8-0.9,2.6c-0.8,1.6-3.2,1.9-4.7,1c-1.5-1-2.5-2.6-2.9-4.4c-2.3-7.9-6.3-12.8-14.7-9.5c-3.1,1.3-6.8,2.1-9.9,0
	C1016,263,1016.8,257.4,1019.6,254.1z"/>
<path class="st22" d="M1019.6,253.6c2.4-2.5,5.5-4.1,8.9-4.7c3.3-0.7,6.9-0.9,9.6-3c3-2.4,4.3-6.9,8-7.9c1.6-0.3,3.3-0.2,4.8,0.4
	c5.9,1.8,11.1,5.3,15,10c0.9,1.4,2.1,2.5,3.4,3.5c0.8,0.3,1.6,0.7,2.4,1.2c0.8,0.7,1.5,1.5,1.9,2.5c2.7,5.4,3.3,11.5,1.7,17.3
	c-0.9,3.4-2.6,6.6-3.6,10s-1.2,7.2,0.6,10.3c-1.7,0.9-3.9-0.2-5-1.9s-1.4-3.6-2-5.5c-1.1-3.7-3.3-7-6.1-9.5c-1.8-1.6-5-2.6-6.2-0.6
	c-0.5,0.8-0.4,1.8-0.9,2.6c-0.8,1.6-3.2,1.9-4.7,1c-1.5-1-2.5-2.6-2.9-4.4c-2.3-7.9-6.3-12.8-14.7-9.5c-3.1,1.3-6.8,2.1-9.9,0
	C1016,262.4,1016.8,256.8,1019.6,253.6z"/>
<path class="st16" d="M1076.2,307.6h-11.5c0,0-22.6,11.3-23.2,10.8c-0.4-0.4-3.9,0.3-6.1,0.7c0.3-1.3,0.6-2.5,0.7-3.9
	c7.3-0.6,25.5-13,25.5-13l14.1-2.3v7.4C1075.9,307.4,1076,307.5,1076.2,307.6z"/>
<path class="st34" d="M1069.1,639.5c0,2.1-0.3,4.1-0.7,6.1c0,0-47,3.4-61.7,2.3c-7.1-0.5-10.1-3.2-10.6-5.7
	c-0.6,2.9,1.9,6.7,10.6,7.4c14.7,1.1,61.7-2.3,61.7-2.3C1068.9,644.7,1069.1,642.1,1069.1,639.5z"/>
<g class="st38">
	<path d="M1007,428.9c-7.6,6-14.4,8.5-18.8,9.5c0,0.4,0.1,0.8,0.1,1.2c0,0,10.8,0.6,24.3-10.2c2.1-1.8,4.6-3.1,7.3-3.8
		C1016.9,424.3,1012.7,424.4,1007,428.9z"/>
	<path d="M1083.8,322.9c-2-6-5-13.5-7.3-15.3c-0.1-0.1-0.3-0.2-0.5-0.3c0,0-4.7,0.2-4.5,0.3c2.3,1.8,4.6,8.8,6.6,14.7
		c1.6,4.8,2.1,10,1.2,15c-2,12.1-6.3,37.1-11.3,58.8c-6.8,30-14.1,23.2-17.5,30.5c-2.8,6-1.4,13.9-0.8,16.6c2.4,1,4.5,1.6,5.9,1.5
		c0,0-2.8-10.2,0.6-17.5s10.8-0.6,17.5-30.5c4.9-21.7,9.2-46.6,11.3-58.8C1085.8,332.8,1085.4,327.7,1083.8,322.9z"/>
</g>
<path class="st19" d="M1018.6,391l-7.3-0.9l-56-6.5c-33.9-10.8-12.5-27.1-12.5-27.1l22.6,21.5c6.5,1.3,32.1-1.7,43.6-3.2
	c3.4-0.5,5.6-0.8,5.6-0.8L1018.6,391z"/>
<path class="st36" d="M1073.4,313.5c0,0-14.7-11.9-36.8,26.6c-22.1,38.5-27.2,32.2-27.2,32.2s4.5,17,2.3,20.4c0,0,15.3-1.1,20.9,0
	s40.7-43,40.7-43S1091.6,324.8,1073.4,313.5z"/>
</svg>
