<?xml version="1.0" encoding="utf-8"?>
<!-- Generator: Adobe Illustrator 23.0.1, SVG Export Plug-In . SVG Version: 6.00 Build 0)  -->
<svg version="1.1" id="f130f8b3-b494-408e-9d23-4781bd978d43"
	 xmlns="http://www.w3.org/2000/svg" xmlns:xlink="http://www.w3.org/1999/xlink" x="0px" y="0px" viewBox="0 0 942 745.6"
	 style="enable-background:new 0 0 942 745.6;" xml:space="preserve">
<style type="text/css">
	.st0{opacity:0.5;}
	.st1{fill:url(#SVGID_1_);}
	.st2{fill:#F2F2F2;}
	.st3{fill:#5F788A;}
	.st4{fill:#E0E0E0;}
	.st5{fill:url(#SVGID_2_);}
	.st6{fill:#FFFFFF;}
	.st7{fill:url(#SVGID_3_);}
	.st8{fill:#535461;}
	.st9{opacity:0.7;}
	.st10{fill:url(#SVGID_4_);}
	.st11{fill:#714B4F;}
	.st12{fill:#4D8AF0;}
	.st13{opacity:5.000000e-02;}
	.st14{opacity:0.1;enable-background:new    ;}
	.st15{fill:#4150AA;}
	.st16{fill:#37373A;}
</style>
<title>fast loading</title>
<g class="st0">
	
		<linearGradient id="SVGID_1_" gradientUnits="userSpaceOnUse" x1="219.485" y1="242.62" x2="219.485" y2="748" gradientTransform="matrix(1 0 0 -1 0 748)">
		<stop  offset="0" style="stop-color:#808080;stop-opacity:0.25"/>
		<stop  offset="0.54" style="stop-color:#808080;stop-opacity:0.12"/>
		<stop  offset="1" style="stop-color:#808080;stop-opacity:0.1"/>
	</linearGradient>
	<path class="st1" d="M56.8,0h325.3c2.5,0,4.5,2,4.5,4.5v496.4c0,2.5-2,4.5-4.5,4.5H56.8c-2.5,0-4.5-2-4.5-4.5V4.5
		C52.3,2,54.3,0,56.8,0z"/>
</g>
<path class="st2" d="M61.1,3.7h316.8c2.5,0,4.5,2,4.5,4.5v486.2c0,2.5-2,4.5-4.5,4.5H61.1c-2.5,0-4.5-2-4.5-4.5V8.2
	C56.6,5.7,58.6,3.7,61.1,3.7z"/>
<g class="st0">
	<path class="st3" d="M93.7,94.9h56.2c2.5,0,4.5,2,4.5,4.5v49.6c0,2.5-2,4.5-4.5,4.5H93.7c-2.5,0-4.5-2-4.5-4.5V99.4
		C89.2,96.9,91.2,94.9,93.7,94.9z"/>
</g>
<path class="st4" d="M176.7,94.9H347c1.6,0,2.8,1.3,2.8,2.8v0.9c0,1.6-1.3,2.8-2.8,2.8H176.7c-1.6,0-2.8-1.3-2.8-2.8v-0.9
	C173.9,96.2,175.1,94.9,176.7,94.9z"/>
<path class="st4" d="M176.7,114.5h140.6c1.6,0,2.8,1.3,2.8,2.8v0.9c0,1.6-1.3,2.8-2.8,2.8H176.7c-1.6,0-2.8-1.3-2.8-2.8v-0.9
	C173.9,115.7,175.1,114.5,176.7,114.5z"/>
<g class="st0">
	<path class="st3" d="M93.7,186.1h56.2c2.5,0,4.5,2,4.5,4.5v49.6c0,2.5-2,4.5-4.5,4.5H93.7c-2.5,0-4.5-2-4.5-4.5v-49.6
		C89.2,188.2,91.2,186.1,93.7,186.1z"/>
</g>
<path class="st4" d="M176.7,186.1H347c1.6,0,2.8,1.3,2.8,2.8v0.9c0,1.6-1.3,2.8-2.8,2.8H176.7c-1.6,0-2.8-1.3-2.8-2.8V189
	C173.9,187.4,175.1,186.1,176.7,186.1z"/>
<path class="st4" d="M176.7,205.7H347c1.6,0,2.8,1.3,2.8,2.8v0.9c0,1.6-1.3,2.8-2.8,2.8H176.7c-1.6,0-2.8-1.3-2.8-2.8v-0.9
	C173.9,206.9,175.1,205.7,176.7,205.7z"/>
<g class="st0">
	<path class="st3" d="M93.7,277.4h56.2c2.5,0,4.5,2,4.5,4.5v49.6c0,2.5-2,4.5-4.5,4.5H93.7c-2.5,0-4.5-2-4.5-4.5v-49.6
		C89.2,279.4,91.2,277.4,93.7,277.4z"/>
</g>
<path class="st4" d="M176.7,277.4H347c1.6,0,2.8,1.3,2.8,2.8v0.9c0,1.6-1.3,2.8-2.8,2.8H176.7c-1.6,0-2.8-1.3-2.8-2.8v-0.9
	C173.9,278.6,175.1,277.4,176.7,277.4z"/>
<path class="st4" d="M176.7,296.9h13.9c1.6,0,2.8,1.3,2.8,2.8v0.9c0,1.6-1.3,2.8-2.8,2.8h-13.9c-1.6,0-2.8-1.3-2.8-2.8v-0.9
	C173.9,298.2,175.1,296.9,176.7,296.9z"/>
<g class="st0">
	
		<linearGradient id="SVGID_2_" gradientUnits="userSpaceOnUse" x1="425.02" y1="288.22" x2="425.02" y2="585.28" gradientTransform="matrix(1 0 0 -1 0 748)">
		<stop  offset="0" style="stop-color:#808080;stop-opacity:0.25"/>
		<stop  offset="0.54" style="stop-color:#808080;stop-opacity:0.12"/>
		<stop  offset="1" style="stop-color:#808080;stop-opacity:0.1"/>
	</linearGradient>
	<path class="st5" d="M264.9,162.7h320.3c2.5,0,4.5,2,4.5,4.5v288.1c0,2.5-2,4.5-4.5,4.5H264.9c-2.5,0-4.5-2-4.5-4.5V167.2
		C260.4,164.7,262.4,162.7,264.9,162.7z"/>
</g>
<path class="st6" d="M270,165.7h310.7c2.5,0,4.5,2,4.5,4.5v278.7c0,2.5-2,4.5-4.5,4.5H270c-2.5,0-4.5-2-4.5-4.5V170.2
	C265.5,167.7,267.5,165.7,270,165.7z"/>
<g class="st0">
	<path class="st3" d="M301.3,227.5H361c2.5,0,4.5,2,4.5,4.5v52.8c0,2.5-2,4.5-4.5,4.5h-59.7c-2.5,0-4.5-2-4.5-4.5V232
		C296.8,229.5,298.9,227.5,301.3,227.5z"/>
</g>
<path class="st4" d="M389.1,227.5h179.5c1.6,0,3,1.3,3,3v0.9c0,1.6-1.3,3-3,3H389.1c-1.6,0-3-1.3-3-3v-0.9
	C386.1,228.9,387.5,227.5,389.1,227.5z"/>
<path class="st4" d="M389.1,248.1h179.5c1.6,0,3,1.3,3,3v0.9c0,1.6-1.3,3-3,3H389.1c-1.6,0-3-1.3-3-3v-0.9
	C386.1,249.5,387.5,248.1,389.1,248.1z"/>
<path class="st4" d="M293,322.9h275.7c1.6,0,3,1.3,3,3v0.9c0,1.6-1.3,3-3,3H293c-1.6,0-3-1.3-3-3v-0.9
	C290,324.3,291.3,322.9,293,322.9z"/>
<path class="st4" d="M293,343.5h275.7c1.6,0,3,1.3,3,3v0.9c0,1.6-1.3,3-3,3H293c-1.6,0-3-1.3-3-3v-0.9
	C290,344.9,291.3,343.5,293,343.5z"/>
<path class="st4" d="M293,371h275.7c1.6,0,3,1.3,3,3v0.9c0,1.6-1.3,3-3,3H293c-1.6,0-3-1.3-3-3V374C290,372.3,291.3,371,293,371z"/>
<path class="st4" d="M293,391.6h207c1.6,0,3,1.3,3,3v0.9c0,1.6-1.3,3-3,3H293c-1.6,0-3-1.3-3-3v-0.9
	C290,392.9,291.3,391.6,293,391.6z"/>
<g class="st0">
	
		<linearGradient id="SVGID_3_" gradientUnits="userSpaceOnUse" x1="600" y1="-76.3443" x2="600" y2="413.1294" gradientTransform="matrix(1 0 0 -1 -129 669.24)">
		<stop  offset="0" style="stop-color:#808080;stop-opacity:0.25"/>
		<stop  offset="0.54" style="stop-color:#808080;stop-opacity:0.12"/>
		<stop  offset="1" style="stop-color:#808080;stop-opacity:0.1"/>
	</linearGradient>
	<path class="st7" d="M597.6,273.9L597.6,273.9l1.2-5.2l-1.6,5.1c-42.7-11.5-86.6-17.4-130.8-17.6C148,254.2,0,535.6,0,535.6
		l301.7,159.2c0,0,37-114.7,168.4-111c9,0.2,18.1,1,27,2.4l-40,124.5c-7,10-4.6,23.9,5.4,30.9c10,7,23.9,4.6,30.9-5.4
		c0.3-0.4,0.5-0.7,0.7-1.1l0,0V735c2.1-3.4,3.2-7.2,3.3-11.2c0-0.7,0-1.3-0.1-2l28.9-129.1c86.1,26.5,112.2,102.1,112.2,102.1
		L942,543C942,543,828,336.4,597.6,273.9z"/>
</g>
<path class="st3" d="M466.4,259.2C152.2,257.4,6,535.1,6,535.1l297.8,157.1c0,0,36.5-113.3,166.3-109.6c9.1,0.2,18.3,1.1,27.3,2.4
	L596,276.8C553.8,265.3,510.2,259.4,466.4,259.2z"/>
<path class="st4" d="M596,276.8l-98.6,308.3c107.6,16.3,139,107.2,139,107.2L936,542.4C936,542.4,823.4,338.5,596,276.8z"/>
<path class="st8" d="M497.1,719l100.1-447.3L457.3,708c-7,9.9-4.8,23.5,5.1,30.6c9.9,7,23.5,4.8,30.6-5.1c0.3-0.5,0.6-0.9,0.9-1.4
	l0,0V732c2-3.3,3.2-7.1,3.2-11C497.1,720.2,497.1,719.6,497.1,719z"/>
<g class="st9">
	
		<linearGradient id="SVGID_4_" gradientUnits="userSpaceOnUse" x1="617.5684" y1="268.18" x2="617.5684" y2="610.95" gradientTransform="matrix(1 0 0 -1 -129 669.24)">
		<stop  offset="0" style="stop-color:#808080;stop-opacity:0.25"/>
		<stop  offset="0.54" style="stop-color:#808080;stop-opacity:0.12"/>
		<stop  offset="1" style="stop-color:#808080;stop-opacity:0.1"/>
	</linearGradient>
	<path class="st10" d="M533.3,258.7l-2.6-0.5l5.2-19c8.1-61-22.6-67.2-34.1-67.4c-1.3-0.5-2.7-0.9-4-1.2v-7.2
		c14.8-3.7,26.1-15.8,28.5-30.9h0.1c1.8,0,3.3-2.8,3.3-6.2c0.1-1.8-0.4-3.6-1.5-5.1c0.1-1.3,0.2-2.7,0.2-4
		c0-10.9-4.5-21.3-12.3-28.8c-0.5-2.7-1.5-5.2-2.8-7.6c-2.8-5-7.5-10.2-5.6-15.6l-12.4,1.3l-0.1-8.2c-3.9,0.7-5.5,5.2-7.8,8.4
		c-5.5,7.7-16.7,8.8-24,14.8c-2.5,2-8.1,8.2-7,12.3c-4.9,6.8-7.6,15-7.6,23.4c0,1.3,0.1,2.7,0.2,4c-1,1.5-1.5,3.3-1.5,5.1
		c0,3.4,1.5,6.2,3.3,6.2h0.1c2.5,15.1,13.7,27.2,28.5,30.9v7.2c-1.4,0.3-2.7,0.7-4,1.2c-11.5,0.2-42.3,6.4-34.1,67.4l5.2,19
		l-1.2,0.2c-7.7,1.4-12.8,8.8-11.3,16.5c0,0,0,0,0,0l20.4,109.2c0.4,2.3,2.7,3.9,5,3.4l3.6-0.7v2.1c-4.1,2-6.6,6.1-6.6,10.7v1.4
		h24.1v-1.4c0-4.2-2.2-8.1-5.8-10.2v-4.8l3.3-0.6c2.3-0.4,3.9-2.7,3.4-5l-19.1-102.6H515l-19.1,102.6c-0.4,2.3,1.1,4.6,3.4,5
		l3.3,0.6v4.8c-3.6,2.2-5.8,6-5.8,10.2v1.4h24.1v-1.4c0-4.5-2.6-8.7-6.6-10.7v-2.1l3.6,0.7c2.3,0.4,4.6-1.1,5-3.4l20.6-110.6
		C544.7,266.7,540.2,260,533.3,258.7C533.3,258.7,533.3,258.7,533.3,258.7z"/>
</g>
<rect x="463.7" y="373" class="st11" width="11.2" height="15.2"/>
<rect x="502.1" y="373" class="st11" width="11.2" height="15.2"/>
<rect x="451.7" y="248.4" class="st12" width="73.5" height="26.4"/>
<g class="st13">
	<rect x="451.7" y="248.4" width="73.5" height="26.4"/>
</g>
<path class="st14" d="M451.7,253.2c0,0,27.4,6.4,36.7,6.4s36.7-6.4,36.7-6.4v-4h-73.5V253.2z"/>
<path class="st15" d="M525.2,252.4c0,0-27.4,6.4-36.7,6.4s-36.7-6.4-36.7-6.4v-43.9c0-20.3,16.4-36.7,36.7-36.7l0,0
	c20.3,0,36.7,16.4,36.7,36.7V252.4z"/>
<path class="st11" d="M479.7,153.3h17.6l0,0v21.1c0,4.2-3.4,7.6-7.6,7.6h-2.3c-4.2,0-7.6-3.4-7.6-7.6L479.7,153.3L479.7,153.3z"/>
<path class="st12" d="M477,378.5l-15.8,2.9c-2.8,0.5-5.5-1.3-6-4.1l-18.8-100.6c-1.7-9.3,4.4-18.2,13.6-19.9c0,0,0,0,0,0l4.1-0.8
	c2.8-0.5,5.5,1.3,6,4.1l21,112.3C481.7,375.2,479.8,377.9,477,378.5C477,378.5,477,378.5,477,378.5z"/>
<path class="st12" d="M499.9,378.5l15.8,2.9c2.8,0.5,5.5-1.3,6-4.1l19.1-102.3c1.6-8.3-3.9-16.4-12.3-17.9l-5.7-1.1
	c-2.8-0.5-5.5,1.3-6,4.1l-21,112.3C495.2,375.2,497.1,377.9,499.9,378.5C499.9,378.5,499.9,378.5,499.9,378.5z"/>
<path class="st14" d="M479.7,166.7c5.8,1.4,11.8,1.4,17.6,0v-12.5h-17.6V166.7z"/>
<circle class="st16" cx="488.5" cy="121.4" r="38.3"/>
<ellipse transform="matrix(0.3827 -0.9239 0.9239 0.3827 181.2762 531.6589)" class="st11" cx="488.5" cy="130.2" rx="36.7" ry="36.7"/>
<path class="st16" d="M464.2,87.1c7.1-5.8,17.8-6.8,23.1-14.2c2.2-3.1,3.8-7.4,7.5-8.1l0.1,7.9l12-1.2c-1.8,5.2,2.7,10.2,5.4,15
	c2,3.5,3.1,7.5,3.2,11.6c-4.2,2.5-9.3-0.2-13.9-1.7s-9.3-1.6-14-1.7c-2.4-0.2-4.8,0-7.2,0.4c-2.1,0.6-4.1,1.3-6,2.2
	c-3.2,1.3-13.2,6.4-16.2,3.1C454.9,96.7,461.5,89.3,464.2,87.1z"/>
<path class="st14" d="M466.2,111.7c2,1.1,4.2,1.8,6.5,2c9.4,1.3,19,0.2,27.9-3.1c1.5,3.7,5,6.2,8.8,7.4s7.8,1.3,11.8,1.3
	c0.9,0.1,1.8-0.1,2.5-0.5c1.8-1.2,0.9-3.9-0.1-5.8l-5.1-9.3c-1.5-2.7-3.1-5.5-5.4-7.6c-2.9-2.6-6.8-3.8-10.7-4.6
	c-9.1-1.8-18.5-1.5-27.4,0.9C465.4,95.1,453.1,103.8,466.2,111.7z"/>
<path class="st16" d="M466.2,111c2,1.1,4.2,1.8,6.5,2c9.4,1.3,19,0.2,27.9-3.1c1.5,3.7,5,6.2,8.8,7.4s7.8,1.3,11.8,1.3
	c0.9,0.1,1.8-0.1,2.5-0.5c1.8-1.2,0.9-3.9-0.1-5.8l-5.1-9.3c-1.5-2.7-3.1-5.5-5.4-7.6c-2.9-2.6-6.8-3.8-10.7-4.6
	c-9.1-1.8-18.5-1.5-27.4,0.9C465.4,94.2,453.1,103,466.2,111z"/>
<ellipse class="st11" cx="524.8" cy="130.2" rx="3.2" ry="6"/>
<ellipse class="st11" cx="452.1" cy="130.2" rx="3.2" ry="6"/>
<path class="st15" d="M479.8,174.2c0,0-46.5-7.2-36.9,64.6l5.6,20.6l16-0.6c0,0-10.4-24-4-39.9S479.8,174.2,479.8,174.2z"/>
<path class="st15" d="M497.1,174.2c0,0,46.5-7.2,36.9,64.6l-5.6,20.6l-16-0.6c0,0,10.4-24,4-39.9S497.1,174.2,497.1,174.2z"/>
<circle class="st11" cx="457.3" cy="262" r="8.8"/>
<circle class="st11" cx="521.2" cy="262" r="8.8"/>
<path class="st16" d="M467.4,381.8h3.1c5.5,0,10,4.5,10,10v2.7l0,0h-23.1l0,0v-2.7C457.3,386.3,461.8,381.8,467.4,381.8
	C467.3,381.8,467.4,381.8,467.4,381.8z"/>
<path class="st16" d="M506.5,381.8h3.1c5.5,0,10,4.5,10,10v2.7l0,0h-23.1l0,0v-2.7C496.5,386.3,500.9,381.8,506.5,381.8
	C506.5,381.8,506.5,381.8,506.5,381.8z"/>
<path class="st14" d="M459.7,212.4c0,0-3.2,16.8,2.4,24"/>
<path class="st14" d="M517.2,212.4c0,0,3.2,16.8-2.4,24"/>
</svg>
